solid cabine_ascenseur_Défaut_sldprt
   facet normal 1.000000e+000 0.000000e+000 0.000000e+000
      outer loop
         vertex 8.000000e+001 0.000000e+000 3.000000e+001
         vertex 8.000000e+001 0.000000e+000 0.000000e+000
         vertex 8.000000e+001 1.000000e+002 3.000000e+001
      endloop
   endfacet
   facet normal 1.000000e+000 0.000000e+000 0.000000e+000
      outer loop
         vertex 8.000000e+001 1.000000e+002 3.000000e+001
         vertex 8.000000e+001 0.000000e+000 0.000000e+000
         vertex 8.000000e+001 1.000000e+002 0.000000e+000
      endloop
   endfacet
   facet normal -1.000000e+000 0.000000e+000 0.000000e+000
      outer loop
         vertex 0.000000e+000 1.000000e+002 7.500000e+001
         vertex 0.000000e+000 1.000000e+002 4.500000e+001
         vertex 0.000000e+000 9.700000e+001 7.500000e+001
      endloop
   endfacet
   facet normal -1.000000e+000 0.000000e+000 0.000000e+000
      outer loop
         vertex 0.000000e+000 9.700000e+001 7.500000e+001
         vertex 0.000000e+000 1.000000e+002 4.500000e+001
         vertex 0.000000e+000 0.000000e+000 4.500000e+001
      endloop
   endfacet
   facet normal -1.000000e+000 0.000000e+000 0.000000e+000
      outer loop
         vertex 0.000000e+000 9.700000e+001 7.500000e+001
         vertex 0.000000e+000 0.000000e+000 4.500000e+001
         vertex 0.000000e+000 3.000000e+000 7.500000e+001
      endloop
   endfacet
   facet normal -1.000000e+000 0.000000e+000 0.000000e+000
      outer loop
         vertex 0.000000e+000 3.000000e+000 7.500000e+001
         vertex 0.000000e+000 0.000000e+000 4.500000e+001
         vertex 0.000000e+000 0.000000e+000 7.500000e+001
      endloop
   endfacet
   facet normal 0.000000e+000 -1.000000e+000 0.000000e+000
      outer loop
         vertex -2.000000e+001 9.700000e+001 7.500000e+001
         vertex 0.000000e+000 9.700000e+001 7.500000e+001
         vertex -2.000000e+001 9.700000e+001 7.600000e+001
      endloop
   endfacet
   facet normal 0.000000e+000 -1.000000e+000 0.000000e+000
      outer loop
         vertex -2.000000e+001 9.700000e+001 7.600000e+001
         vertex 0.000000e+000 9.700000e+001 7.500000e+001
         vertex 3.000000e+000 9.700000e+001 7.500000e+001
      endloop
   endfacet
   facet normal 0.000000e+000 -1.000000e+000 0.000000e+000
      outer loop
         vertex -2.000000e+001 9.700000e+001 7.600000e+001
         vertex 3.000000e+000 9.700000e+001 7.500000e+001
         vertex 1.000000e+002 9.700000e+001 7.600000e+001
      endloop
   endfacet
   facet normal 0.000000e+000 -1.000000e+000 0.000000e+000
      outer loop
         vertex 3.000000e+000 9.700000e+001 5.000000e+000
         vertex 7.700000e+001 9.700000e+001 5.000000e+000
         vertex 3.000000e+000 9.700000e+001 7.500000e+001
      endloop
   endfacet
   facet normal 0.000000e+000 -1.000000e+000 0.000000e+000
      outer loop
         vertex 3.000000e+000 9.700000e+001 7.500000e+001
         vertex 7.700000e+001 9.700000e+001 5.000000e+000
         vertex 7.700000e+001 9.700000e+001 7.500000e+001
      endloop
   endfacet
   facet normal 0.000000e+000 -1.000000e+000 0.000000e+000
      outer loop
         vertex 3.000000e+000 9.700000e+001 7.500000e+001
         vertex 7.700000e+001 9.700000e+001 7.500000e+001
         vertex 1.000000e+002 9.700000e+001 7.600000e+001
      endloop
   endfacet
   facet normal 0.000000e+000 -1.000000e+000 0.000000e+000
      outer loop
         vertex 1.000000e+002 9.700000e+001 7.600000e+001
         vertex 7.700000e+001 9.700000e+001 7.500000e+001
         vertex 8.000000e+001 9.700000e+001 7.500000e+001
      endloop
   endfacet
   facet normal 0.000000e+000 -1.000000e+000 0.000000e+000
      outer loop
         vertex 1.000000e+002 9.700000e+001 7.600000e+001
         vertex 8.000000e+001 9.700000e+001 7.500000e+001
         vertex 1.000000e+002 9.700000e+001 7.500000e+001
      endloop
   endfacet
   facet normal 0.000000e+000 1.000000e+000 0.000000e+000
      outer loop
         vertex 1.000000e+002 3.000000e+000 7.500000e+001
         vertex 8.000000e+001 3.000000e+000 7.500000e+001
         vertex 1.000000e+002 3.000000e+000 7.600000e+001
      endloop
   endfacet
   facet normal 0.000000e+000 1.000000e+000 0.000000e+000
      outer loop
         vertex 1.000000e+002 3.000000e+000 7.600000e+001
         vertex 8.000000e+001 3.000000e+000 7.500000e+001
         vertex 7.700000e+001 3.000000e+000 7.500000e+001
      endloop
   endfacet
   facet normal 0.000000e+000 1.000000e+000 0.000000e+000
      outer loop
         vertex 1.000000e+002 3.000000e+000 7.600000e+001
         vertex 7.700000e+001 3.000000e+000 7.500000e+001
         vertex -2.000000e+001 3.000000e+000 7.600000e+001
      endloop
   endfacet
   facet normal 0.000000e+000 1.000000e+000 0.000000e+000
      outer loop
         vertex 7.700000e+001 3.000000e+000 5.000000e+000
         vertex 3.000000e+000 3.000000e+000 5.000000e+000
         vertex 7.700000e+001 3.000000e+000 7.500000e+001
      endloop
   endfacet
   facet normal 0.000000e+000 1.000000e+000 0.000000e+000
      outer loop
         vertex 7.700000e+001 3.000000e+000 7.500000e+001
         vertex 3.000000e+000 3.000000e+000 5.000000e+000
         vertex 3.000000e+000 3.000000e+000 7.500000e+001
      endloop
   endfacet
   facet normal 0.000000e+000 1.000000e+000 0.000000e+000
      outer loop
         vertex 7.700000e+001 3.000000e+000 7.500000e+001
         vertex 3.000000e+000 3.000000e+000 7.500000e+001
         vertex -2.000000e+001 3.000000e+000 7.600000e+001
      endloop
   endfacet
   facet normal 0.000000e+000 1.000000e+000 0.000000e+000
      outer loop
         vertex -2.000000e+001 3.000000e+000 7.600000e+001
         vertex 3.000000e+000 3.000000e+000 7.500000e+001
         vertex 0.000000e+000 3.000000e+000 7.500000e+001
      endloop
   endfacet
   facet normal 0.000000e+000 1.000000e+000 0.000000e+000
      outer loop
         vertex -2.000000e+001 3.000000e+000 7.600000e+001
         vertex 0.000000e+000 3.000000e+000 7.500000e+001
         vertex -2.000000e+001 3.000000e+000 7.500000e+001
      endloop
   endfacet
   facet normal -1.000000e+000 0.000000e+000 0.000000e+000
      outer loop
         vertex 0.000000e+000 1.000000e+002 3.000000e+001
         vertex 0.000000e+000 1.000000e+002 0.000000e+000
         vertex 0.000000e+000 0.000000e+000 3.000000e+001
      endloop
   endfacet
   facet normal -1.000000e+000 0.000000e+000 0.000000e+000
      outer loop
         vertex 0.000000e+000 0.000000e+000 3.000000e+001
         vertex 0.000000e+000 1.000000e+002 0.000000e+000
         vertex 0.000000e+000 0.000000e+000 0.000000e+000
      endloop
   endfacet
   facet normal 1.000000e+000 0.000000e+000 0.000000e+000
      outer loop
         vertex 8.000000e+001 0.000000e+000 7.500000e+001
         vertex 8.000000e+001 0.000000e+000 4.500000e+001
         vertex 8.000000e+001 3.000000e+000 7.500000e+001
      endloop
   endfacet
   facet normal 1.000000e+000 0.000000e+000 0.000000e+000
      outer loop
         vertex 8.000000e+001 3.000000e+000 7.500000e+001
         vertex 8.000000e+001 0.000000e+000 4.500000e+001
         vertex 8.000000e+001 1.000000e+002 4.500000e+001
      endloop
   endfacet
   facet normal 1.000000e+000 0.000000e+000 0.000000e+000
      outer loop
         vertex 8.000000e+001 3.000000e+000 7.500000e+001
         vertex 8.000000e+001 1.000000e+002 4.500000e+001
         vertex 8.000000e+001 9.700000e+001 7.500000e+001
      endloop
   endfacet
   facet normal 1.000000e+000 0.000000e+000 0.000000e+000
      outer loop
         vertex 8.000000e+001 9.700000e+001 7.500000e+001
         vertex 8.000000e+001 1.000000e+002 4.500000e+001
         vertex 8.000000e+001 1.000000e+002 7.500000e+001
      endloop
   endfacet
   facet normal 0.000000e+000 0.000000e+000 1.000000e+000
      outer loop
         vertex 3.000000e+000 3.000000e+000 7.500000e+001
         vertex 3.000000e+000 9.700000e+001 7.500000e+001
         vertex 0.000000e+000 3.000000e+000 7.500000e+001
      endloop
   endfacet
   facet normal 0.000000e+000 0.000000e+000 1.000000e+000
      outer loop
         vertex 0.000000e+000 3.000000e+000 7.500000e+001
         vertex 3.000000e+000 9.700000e+001 7.500000e+001
         vertex 0.000000e+000 9.700000e+001 7.500000e+001
      endloop
   endfacet
   facet normal 0.000000e+000 0.000000e+000 1.000000e+000
      outer loop
         vertex 8.000000e+001 3.000000e+000 7.500000e+001
         vertex 8.000000e+001 9.700000e+001 7.500000e+001
         vertex 7.700000e+001 3.000000e+000 7.500000e+001
      endloop
   endfacet
   facet normal 0.000000e+000 0.000000e+000 1.000000e+000
      outer loop
         vertex 7.700000e+001 3.000000e+000 7.500000e+001
         vertex 8.000000e+001 9.700000e+001 7.500000e+001
         vertex 7.700000e+001 9.700000e+001 7.500000e+001
      endloop
   endfacet
   facet normal 0.000000e+000 -1.000000e+000 0.000000e+000
      outer loop
         vertex -2.000000e+001 0.000000e+000 8.000000e+001
         vertex -2.000000e+001 0.000000e+000 7.500000e+001
         vertex 0.000000e+000 0.000000e+000 7.500000e+001
      endloop
   endfacet
   facet normal 0.000000e+000 -1.000000e+000 0.000000e+000
      outer loop
         vertex 0.000000e+000 0.000000e+000 0.000000e+000
         vertex 8.000000e+001 0.000000e+000 0.000000e+000
         vertex 0.000000e+000 0.000000e+000 3.000000e+001
      endloop
   endfacet
   facet normal 0.000000e+000 -1.000000e+000 0.000000e+000
      outer loop
         vertex 0.000000e+000 0.000000e+000 3.000000e+001
         vertex 8.000000e+001 0.000000e+000 0.000000e+000
         vertex 8.000000e+001 0.000000e+000 3.000000e+001
      endloop
   endfacet
   facet normal 0.000000e+000 -1.000000e+000 0.000000e+000
      outer loop
         vertex -6.000000e+000 0.000000e+000 4.500000e+001
         vertex -6.000000e+000 0.000000e+000 3.000000e+001
         vertex 0.000000e+000 0.000000e+000 4.500000e+001
      endloop
   endfacet
   facet normal 0.000000e+000 -1.000000e+000 0.000000e+000
      outer loop
         vertex 0.000000e+000 0.000000e+000 4.500000e+001
         vertex -6.000000e+000 0.000000e+000 3.000000e+001
         vertex 0.000000e+000 0.000000e+000 3.000000e+001
      endloop
   endfacet
   facet normal 0.000000e+000 -1.000000e+000 0.000000e+000
      outer loop
         vertex -2.000000e+001 0.000000e+000 8.000000e+001
         vertex 0.000000e+000 0.000000e+000 7.500000e+001
         vertex 1.000000e+002 0.000000e+000 8.000000e+001
      endloop
   endfacet
   facet normal 0.000000e+000 -1.000000e+000 0.000000e+000
      outer loop
         vertex 1.000000e+002 0.000000e+000 8.000000e+001
         vertex 0.000000e+000 0.000000e+000 7.500000e+001
         vertex 8.000000e+001 0.000000e+000 7.500000e+001
      endloop
   endfacet
   facet normal 0.000000e+000 -1.000000e+000 0.000000e+000
      outer loop
         vertex 1.000000e+002 0.000000e+000 8.000000e+001
         vertex 8.000000e+001 0.000000e+000 7.500000e+001
         vertex 1.000000e+002 0.000000e+000 7.500000e+001
      endloop
   endfacet
   facet normal 0.000000e+000 -1.000000e+000 0.000000e+000
      outer loop
         vertex 8.600000e+001 0.000000e+000 3.000000e+001
         vertex 8.600000e+001 0.000000e+000 4.500000e+001
         vertex 8.000000e+001 0.000000e+000 3.000000e+001
      endloop
   endfacet
   facet normal 0.000000e+000 -1.000000e+000 0.000000e+000
      outer loop
         vertex 8.000000e+001 0.000000e+000 3.000000e+001
         vertex 8.600000e+001 0.000000e+000 4.500000e+001
         vertex 8.000000e+001 0.000000e+000 4.500000e+001
      endloop
   endfacet
   facet normal 0.000000e+000 -1.000000e+000 0.000000e+000
      outer loop
         vertex 8.000000e+001 0.000000e+000 3.000000e+001
         vertex 8.000000e+001 0.000000e+000 4.500000e+001
         vertex 0.000000e+000 0.000000e+000 3.000000e+001
      endloop
   endfacet
   facet normal 0.000000e+000 -1.000000e+000 0.000000e+000
      outer loop
         vertex 0.000000e+000 0.000000e+000 3.000000e+001
         vertex 8.000000e+001 0.000000e+000 4.500000e+001
         vertex 8.000000e+001 0.000000e+000 7.500000e+001
      endloop
   endfacet
   facet normal 0.000000e+000 -1.000000e+000 0.000000e+000
      outer loop
         vertex 0.000000e+000 0.000000e+000 3.000000e+001
         vertex 8.000000e+001 0.000000e+000 7.500000e+001
         vertex 0.000000e+000 0.000000e+000 4.500000e+001
      endloop
   endfacet
   facet normal 0.000000e+000 -1.000000e+000 0.000000e+000
      outer loop
         vertex 0.000000e+000 0.000000e+000 4.500000e+001
         vertex 8.000000e+001 0.000000e+000 7.500000e+001
         vertex 0.000000e+000 0.000000e+000 7.500000e+001
      endloop
   endfacet
   facet normal 0.000000e+000 1.000000e+000 0.000000e+000
      outer loop
         vertex 0.000000e+000 1.000000e+002 7.500000e+001
         vertex -2.000000e+001 1.000000e+002 7.500000e+001
         vertex -2.000000e+001 1.000000e+002 8.000000e+001
      endloop
   endfacet
   facet normal 0.000000e+000 1.000000e+000 0.000000e+000
      outer loop
         vertex 0.000000e+000 1.000000e+002 3.000000e+001
         vertex 8.000000e+001 1.000000e+002 7.500000e+001
         vertex 0.000000e+000 1.000000e+002 0.000000e+000
      endloop
   endfacet
   facet normal 0.000000e+000 1.000000e+000 0.000000e+000
      outer loop
         vertex 0.000000e+000 1.000000e+002 0.000000e+000
         vertex 8.000000e+001 1.000000e+002 7.500000e+001
         vertex 8.000000e+001 1.000000e+002 4.500000e+001
      endloop
   endfacet
   facet normal 0.000000e+000 1.000000e+000 0.000000e+000
      outer loop
         vertex 8.000000e+001 1.000000e+002 0.000000e+000
         vertex 0.000000e+000 1.000000e+002 0.000000e+000
         vertex 8.000000e+001 1.000000e+002 3.000000e+001
      endloop
   endfacet
   facet normal 0.000000e+000 1.000000e+000 0.000000e+000
      outer loop
         vertex 8.000000e+001 1.000000e+002 3.000000e+001
         vertex 0.000000e+000 1.000000e+002 0.000000e+000
         vertex 8.000000e+001 1.000000e+002 4.500000e+001
      endloop
   endfacet
   facet normal 0.000000e+000 1.000000e+000 0.000000e+000
      outer loop
         vertex 8.000000e+001 1.000000e+002 3.000000e+001
         vertex 8.000000e+001 1.000000e+002 4.500000e+001
         vertex 8.600000e+001 1.000000e+002 3.000000e+001
      endloop
   endfacet
   facet normal 0.000000e+000 1.000000e+000 0.000000e+000
      outer loop
         vertex 8.600000e+001 1.000000e+002 3.000000e+001
         vertex 8.000000e+001 1.000000e+002 4.500000e+001
         vertex 8.600000e+001 1.000000e+002 4.500000e+001
      endloop
   endfacet
   facet normal 0.000000e+000 1.000000e+000 0.000000e+000
      outer loop
         vertex 1.000000e+002 1.000000e+002 8.000000e+001
         vertex 1.000000e+002 1.000000e+002 7.500000e+001
         vertex 8.000000e+001 1.000000e+002 7.500000e+001
      endloop
   endfacet
   facet normal 0.000000e+000 1.000000e+000 0.000000e+000
      outer loop
         vertex -2.000000e+001 1.000000e+002 8.000000e+001
         vertex 1.000000e+002 1.000000e+002 8.000000e+001
         vertex 0.000000e+000 1.000000e+002 7.500000e+001
      endloop
   endfacet
   facet normal 0.000000e+000 1.000000e+000 0.000000e+000
      outer loop
         vertex 0.000000e+000 1.000000e+002 7.500000e+001
         vertex 1.000000e+002 1.000000e+002 8.000000e+001
         vertex 8.000000e+001 1.000000e+002 7.500000e+001
      endloop
   endfacet
   facet normal 0.000000e+000 1.000000e+000 0.000000e+000
      outer loop
         vertex 0.000000e+000 1.000000e+002 7.500000e+001
         vertex 8.000000e+001 1.000000e+002 7.500000e+001
         vertex 0.000000e+000 1.000000e+002 4.500000e+001
      endloop
   endfacet
   facet normal 0.000000e+000 1.000000e+000 0.000000e+000
      outer loop
         vertex 0.000000e+000 1.000000e+002 4.500000e+001
         vertex 8.000000e+001 1.000000e+002 7.500000e+001
         vertex 0.000000e+000 1.000000e+002 3.000000e+001
      endloop
   endfacet
   facet normal 0.000000e+000 1.000000e+000 0.000000e+000
      outer loop
         vertex 0.000000e+000 1.000000e+002 4.500000e+001
         vertex 0.000000e+000 1.000000e+002 3.000000e+001
         vertex -6.000000e+000 1.000000e+002 4.500000e+001
      endloop
   endfacet
   facet normal 0.000000e+000 1.000000e+000 0.000000e+000
      outer loop
         vertex -6.000000e+000 1.000000e+002 4.500000e+001
         vertex 0.000000e+000 1.000000e+002 3.000000e+001
         vertex -6.000000e+000 1.000000e+002 3.000000e+001
      endloop
   endfacet
   facet normal 0.000000e+000 0.000000e+000 -1.000000e+000
      outer loop
         vertex 8.000000e+001 1.000000e+002 0.000000e+000
         vertex 8.000000e+001 0.000000e+000 0.000000e+000
         vertex 0.000000e+000 1.000000e+002 0.000000e+000
      endloop
   endfacet
   facet normal 0.000000e+000 0.000000e+000 -1.000000e+000
      outer loop
         vertex 0.000000e+000 1.000000e+002 0.000000e+000
         vertex 8.000000e+001 0.000000e+000 0.000000e+000
         vertex 0.000000e+000 0.000000e+000 0.000000e+000
      endloop
   endfacet
   facet normal 1.000000e+000 1.199543e-016 0.000000e+000
      outer loop
         vertex 3.000000e+000 9.700000e+001 7.500000e+001
         vertex 3.000000e+000 3.000000e+000 7.500000e+001
         vertex 3.000000e+000 9.700000e+001 5.000000e+000
      endloop
   endfacet
   facet normal 1.000000e+000 1.199543e-016 0.000000e+000
      outer loop
         vertex 3.000000e+000 9.700000e+001 5.000000e+000
         vertex 3.000000e+000 3.000000e+000 7.500000e+001
         vertex 3.000000e+000 3.000000e+000 5.000000e+000
      endloop
   endfacet
   facet normal 0.000000e+000 1.000000e+000 0.000000e+000
      outer loop
         vertex -2.000000e+001 3.000000e+000 8.000000e+001
         vertex 1.000000e+002 3.000000e+000 8.000000e+001
         vertex -2.000000e+001 3.000000e+000 7.900000e+001
      endloop
   endfacet
   facet normal 0.000000e+000 1.000000e+000 0.000000e+000
      outer loop
         vertex -2.000000e+001 3.000000e+000 7.900000e+001
         vertex 1.000000e+002 3.000000e+000 8.000000e+001
         vertex 1.000000e+002 3.000000e+000 7.900000e+001
      endloop
   endfacet
   facet normal -1.000000e+000 -1.476360e-016 0.000000e+000
      outer loop
         vertex 7.700000e+001 3.000000e+000 7.500000e+001
         vertex 7.700000e+001 9.700000e+001 7.500000e+001
         vertex 7.700000e+001 3.000000e+000 5.000000e+000
      endloop
   endfacet
   facet normal -1.000000e+000 -1.476360e-016 0.000000e+000
      outer loop
         vertex 7.700000e+001 3.000000e+000 5.000000e+000
         vertex 7.700000e+001 9.700000e+001 7.500000e+001
         vertex 7.700000e+001 9.700000e+001 5.000000e+000
      endloop
   endfacet
   facet normal 0.000000e+000 -1.000000e+000 0.000000e+000
      outer loop
         vertex 1.000000e+002 9.700000e+001 8.000000e+001
         vertex -2.000000e+001 9.700000e+001 8.000000e+001
         vertex 1.000000e+002 9.700000e+001 7.900000e+001
      endloop
   endfacet
   facet normal 0.000000e+000 -1.000000e+000 0.000000e+000
      outer loop
         vertex 1.000000e+002 9.700000e+001 7.900000e+001
         vertex -2.000000e+001 9.700000e+001 8.000000e+001
         vertex -2.000000e+001 9.700000e+001 7.900000e+001
      endloop
   endfacet
   facet normal 0.000000e+000 0.000000e+000 1.000000e+000
      outer loop
         vertex 3.000000e+000 3.000000e+000 5.000000e+000
         vertex 7.700000e+001 3.000000e+000 5.000000e+000
         vertex 3.000000e+000 9.700000e+001 5.000000e+000
      endloop
   endfacet
   facet normal 0.000000e+000 0.000000e+000 1.000000e+000
      outer loop
         vertex 3.000000e+000 9.700000e+001 5.000000e+000
         vertex 7.700000e+001 3.000000e+000 5.000000e+000
         vertex 7.700000e+001 9.700000e+001 5.000000e+000
      endloop
   endfacet
   facet normal 0.000000e+000 0.000000e+000 1.000000e+000
      outer loop
         vertex -2.000000e+001 9.700000e+001 8.000000e+001
         vertex 1.000000e+002 9.700000e+001 8.000000e+001
         vertex -2.000000e+001 1.000000e+002 8.000000e+001
      endloop
   endfacet
   facet normal 0.000000e+000 0.000000e+000 1.000000e+000
      outer loop
         vertex -2.000000e+001 1.000000e+002 8.000000e+001
         vertex 1.000000e+002 9.700000e+001 8.000000e+001
         vertex 1.000000e+002 1.000000e+002 8.000000e+001
      endloop
   endfacet
   facet normal 0.000000e+000 0.000000e+000 1.000000e+000
      outer loop
         vertex -2.000000e+001 0.000000e+000 8.000000e+001
         vertex 1.000000e+002 0.000000e+000 8.000000e+001
         vertex -2.000000e+001 3.000000e+000 8.000000e+001
      endloop
   endfacet
   facet normal 0.000000e+000 0.000000e+000 1.000000e+000
      outer loop
         vertex -2.000000e+001 3.000000e+000 8.000000e+001
         vertex 1.000000e+002 0.000000e+000 8.000000e+001
         vertex 1.000000e+002 3.000000e+000 8.000000e+001
      endloop
   endfacet
   facet normal 0.000000e+000 0.000000e+000 -1.000000e+000
      outer loop
         vertex 1.000000e+002 1.000000e+002 7.500000e+001
         vertex 1.000000e+002 9.700000e+001 7.500000e+001
         vertex 8.000000e+001 1.000000e+002 7.500000e+001
      endloop
   endfacet
   facet normal 0.000000e+000 0.000000e+000 -1.000000e+000
      outer loop
         vertex 8.000000e+001 1.000000e+002 7.500000e+001
         vertex 1.000000e+002 9.700000e+001 7.500000e+001
         vertex 8.000000e+001 9.700000e+001 7.500000e+001
      endloop
   endfacet
   facet normal 1.000000e+000 0.000000e+000 0.000000e+000
      outer loop
         vertex 1.000000e+002 9.700000e+001 7.600000e+001
         vertex 1.000000e+002 9.700000e+001 7.500000e+001
         vertex 1.000000e+002 9.900000e+001 7.600000e+001
      endloop
   endfacet
   facet normal 1.000000e+000 0.000000e+000 0.000000e+000
      outer loop
         vertex 1.000000e+002 9.900000e+001 7.600000e+001
         vertex 1.000000e+002 9.700000e+001 7.500000e+001
         vertex 1.000000e+002 1.000000e+002 7.500000e+001
      endloop
   endfacet
   facet normal 1.000000e+000 0.000000e+000 0.000000e+000
      outer loop
         vertex 1.000000e+002 9.900000e+001 7.600000e+001
         vertex 1.000000e+002 1.000000e+002 7.500000e+001
         vertex 1.000000e+002 9.900000e+001 7.900000e+001
      endloop
   endfacet
   facet normal 1.000000e+000 0.000000e+000 0.000000e+000
      outer loop
         vertex 1.000000e+002 9.900000e+001 7.900000e+001
         vertex 1.000000e+002 1.000000e+002 7.500000e+001
         vertex 1.000000e+002 1.000000e+002 8.000000e+001
      endloop
   endfacet
   facet normal 1.000000e+000 0.000000e+000 0.000000e+000
      outer loop
         vertex 1.000000e+002 9.900000e+001 7.900000e+001
         vertex 1.000000e+002 1.000000e+002 8.000000e+001
         vertex 1.000000e+002 9.700000e+001 7.900000e+001
      endloop
   endfacet
   facet normal 1.000000e+000 0.000000e+000 0.000000e+000
      outer loop
         vertex 1.000000e+002 9.700000e+001 7.900000e+001
         vertex 1.000000e+002 1.000000e+002 8.000000e+001
         vertex 1.000000e+002 9.700000e+001 8.000000e+001
      endloop
   endfacet
   facet normal 0.000000e+000 0.000000e+000 -1.000000e+000
      outer loop
         vertex 1.000000e+002 3.000000e+000 7.500000e+001
         vertex 1.000000e+002 0.000000e+000 7.500000e+001
         vertex 8.000000e+001 3.000000e+000 7.500000e+001
      endloop
   endfacet
   facet normal 0.000000e+000 0.000000e+000 -1.000000e+000
      outer loop
         vertex 8.000000e+001 3.000000e+000 7.500000e+001
         vertex 1.000000e+002 0.000000e+000 7.500000e+001
         vertex 8.000000e+001 0.000000e+000 7.500000e+001
      endloop
   endfacet
   facet normal 1.000000e+000 0.000000e+000 0.000000e+000
      outer loop
         vertex 1.000000e+002 3.000000e+000 7.900000e+001
         vertex 1.000000e+002 3.000000e+000 8.000000e+001
         vertex 1.000000e+002 1.000000e+000 7.900000e+001
      endloop
   endfacet
   facet normal 1.000000e+000 0.000000e+000 0.000000e+000
      outer loop
         vertex 1.000000e+002 1.000000e+000 7.900000e+001
         vertex 1.000000e+002 3.000000e+000 8.000000e+001
         vertex 1.000000e+002 0.000000e+000 8.000000e+001
      endloop
   endfacet
   facet normal 1.000000e+000 0.000000e+000 0.000000e+000
      outer loop
         vertex 1.000000e+002 1.000000e+000 7.900000e+001
         vertex 1.000000e+002 0.000000e+000 8.000000e+001
         vertex 1.000000e+002 1.000000e+000 7.600000e+001
      endloop
   endfacet
   facet normal 1.000000e+000 0.000000e+000 0.000000e+000
      outer loop
         vertex 1.000000e+002 1.000000e+000 7.600000e+001
         vertex 1.000000e+002 0.000000e+000 8.000000e+001
         vertex 1.000000e+002 0.000000e+000 7.500000e+001
      endloop
   endfacet
   facet normal 1.000000e+000 0.000000e+000 0.000000e+000
      outer loop
         vertex 1.000000e+002 1.000000e+000 7.600000e+001
         vertex 1.000000e+002 0.000000e+000 7.500000e+001
         vertex 1.000000e+002 3.000000e+000 7.600000e+001
      endloop
   endfacet
   facet normal 1.000000e+000 0.000000e+000 0.000000e+000
      outer loop
         vertex 1.000000e+002 3.000000e+000 7.600000e+001
         vertex 1.000000e+002 0.000000e+000 7.500000e+001
         vertex 1.000000e+002 3.000000e+000 7.500000e+001
      endloop
   endfacet
   facet normal 0.000000e+000 0.000000e+000 -1.000000e+000
      outer loop
         vertex -2.000000e+001 9.700000e+001 7.500000e+001
         vertex -2.000000e+001 1.000000e+002 7.500000e+001
         vertex 0.000000e+000 9.700000e+001 7.500000e+001
      endloop
   endfacet
   facet normal 0.000000e+000 0.000000e+000 -1.000000e+000
      outer loop
         vertex 0.000000e+000 9.700000e+001 7.500000e+001
         vertex -2.000000e+001 1.000000e+002 7.500000e+001
         vertex 0.000000e+000 1.000000e+002 7.500000e+001
      endloop
   endfacet
   facet normal -1.000000e+000 0.000000e+000 0.000000e+000
      outer loop
         vertex -2.000000e+001 9.700000e+001 7.900000e+001
         vertex -2.000000e+001 9.700000e+001 8.000000e+001
         vertex -2.000000e+001 9.900000e+001 7.900000e+001
      endloop
   endfacet
   facet normal -1.000000e+000 0.000000e+000 0.000000e+000
      outer loop
         vertex -2.000000e+001 9.900000e+001 7.900000e+001
         vertex -2.000000e+001 9.700000e+001 8.000000e+001
         vertex -2.000000e+001 1.000000e+002 8.000000e+001
      endloop
   endfacet
   facet normal -1.000000e+000 0.000000e+000 0.000000e+000
      outer loop
         vertex -2.000000e+001 9.900000e+001 7.900000e+001
         vertex -2.000000e+001 1.000000e+002 8.000000e+001
         vertex -2.000000e+001 9.900000e+001 7.600000e+001
      endloop
   endfacet
   facet normal -1.000000e+000 0.000000e+000 0.000000e+000
      outer loop
         vertex -2.000000e+001 9.900000e+001 7.600000e+001
         vertex -2.000000e+001 1.000000e+002 8.000000e+001
         vertex -2.000000e+001 1.000000e+002 7.500000e+001
      endloop
   endfacet
   facet normal -1.000000e+000 0.000000e+000 0.000000e+000
      outer loop
         vertex -2.000000e+001 9.900000e+001 7.600000e+001
         vertex -2.000000e+001 1.000000e+002 7.500000e+001
         vertex -2.000000e+001 9.700000e+001 7.600000e+001
      endloop
   endfacet
   facet normal -1.000000e+000 0.000000e+000 0.000000e+000
      outer loop
         vertex -2.000000e+001 9.700000e+001 7.600000e+001
         vertex -2.000000e+001 1.000000e+002 7.500000e+001
         vertex -2.000000e+001 9.700000e+001 7.500000e+001
      endloop
   endfacet
   facet normal 0.000000e+000 0.000000e+000 -1.000000e+000
      outer loop
         vertex -2.000000e+001 0.000000e+000 7.500000e+001
         vertex -2.000000e+001 3.000000e+000 7.500000e+001
         vertex 0.000000e+000 0.000000e+000 7.500000e+001
      endloop
   endfacet
   facet normal 0.000000e+000 0.000000e+000 -1.000000e+000
      outer loop
         vertex 0.000000e+000 0.000000e+000 7.500000e+001
         vertex -2.000000e+001 3.000000e+000 7.500000e+001
         vertex 0.000000e+000 3.000000e+000 7.500000e+001
      endloop
   endfacet
   facet normal -1.000000e+000 0.000000e+000 0.000000e+000
      outer loop
         vertex -2.000000e+001 3.000000e+000 7.600000e+001
         vertex -2.000000e+001 3.000000e+000 7.500000e+001
         vertex -2.000000e+001 1.000000e+000 7.600000e+001
      endloop
   endfacet
   facet normal -1.000000e+000 0.000000e+000 0.000000e+000
      outer loop
         vertex -2.000000e+001 1.000000e+000 7.600000e+001
         vertex -2.000000e+001 3.000000e+000 7.500000e+001
         vertex -2.000000e+001 0.000000e+000 7.500000e+001
      endloop
   endfacet
   facet normal -1.000000e+000 0.000000e+000 0.000000e+000
      outer loop
         vertex -2.000000e+001 1.000000e+000 7.600000e+001
         vertex -2.000000e+001 0.000000e+000 7.500000e+001
         vertex -2.000000e+001 1.000000e+000 7.900000e+001
      endloop
   endfacet
   facet normal -1.000000e+000 0.000000e+000 0.000000e+000
      outer loop
         vertex -2.000000e+001 1.000000e+000 7.900000e+001
         vertex -2.000000e+001 0.000000e+000 7.500000e+001
         vertex -2.000000e+001 0.000000e+000 8.000000e+001
      endloop
   endfacet
   facet normal -1.000000e+000 0.000000e+000 0.000000e+000
      outer loop
         vertex -2.000000e+001 1.000000e+000 7.900000e+001
         vertex -2.000000e+001 0.000000e+000 8.000000e+001
         vertex -2.000000e+001 3.000000e+000 7.900000e+001
      endloop
   endfacet
   facet normal -1.000000e+000 0.000000e+000 0.000000e+000
      outer loop
         vertex -2.000000e+001 3.000000e+000 7.900000e+001
         vertex -2.000000e+001 0.000000e+000 8.000000e+001
         vertex -2.000000e+001 3.000000e+000 8.000000e+001
      endloop
   endfacet
   facet normal 0.000000e+000 0.000000e+000 1.000000e+000
      outer loop
         vertex -2.000000e+001 3.000000e+000 7.600000e+001
         vertex -2.000000e+001 1.000000e+000 7.600000e+001
         vertex 1.000000e+002 3.000000e+000 7.600000e+001
      endloop
   endfacet
   facet normal 0.000000e+000 0.000000e+000 1.000000e+000
      outer loop
         vertex 1.000000e+002 3.000000e+000 7.600000e+001
         vertex -2.000000e+001 1.000000e+000 7.600000e+001
         vertex 1.000000e+002 1.000000e+000 7.600000e+001
      endloop
   endfacet
   facet normal 0.000000e+000 0.000000e+000 -1.000000e+000
      outer loop
         vertex -2.000000e+001 1.000000e+000 7.900000e+001
         vertex -2.000000e+001 3.000000e+000 7.900000e+001
         vertex 1.000000e+002 1.000000e+000 7.900000e+001
      endloop
   endfacet
   facet normal 0.000000e+000 0.000000e+000 -1.000000e+000
      outer loop
         vertex 1.000000e+002 1.000000e+000 7.900000e+001
         vertex -2.000000e+001 3.000000e+000 7.900000e+001
         vertex 1.000000e+002 3.000000e+000 7.900000e+001
      endloop
   endfacet
   facet normal 0.000000e+000 1.000000e+000 0.000000e+000
      outer loop
         vertex -2.000000e+001 1.000000e+000 7.600000e+001
         vertex -2.000000e+001 1.000000e+000 7.900000e+001
         vertex 1.000000e+002 1.000000e+000 7.600000e+001
      endloop
   endfacet
   facet normal 0.000000e+000 1.000000e+000 0.000000e+000
      outer loop
         vertex 1.000000e+002 1.000000e+000 7.600000e+001
         vertex -2.000000e+001 1.000000e+000 7.900000e+001
         vertex 1.000000e+002 1.000000e+000 7.900000e+001
      endloop
   endfacet
   facet normal 0.000000e+000 0.000000e+000 1.000000e+000
      outer loop
         vertex -2.000000e+001 9.900000e+001 7.600000e+001
         vertex -2.000000e+001 9.700000e+001 7.600000e+001
         vertex 1.000000e+002 9.900000e+001 7.600000e+001
      endloop
   endfacet
   facet normal 0.000000e+000 0.000000e+000 1.000000e+000
      outer loop
         vertex 1.000000e+002 9.900000e+001 7.600000e+001
         vertex -2.000000e+001 9.700000e+001 7.600000e+001
         vertex 1.000000e+002 9.700000e+001 7.600000e+001
      endloop
   endfacet
   facet normal 0.000000e+000 -1.000000e+000 0.000000e+000
      outer loop
         vertex -2.000000e+001 9.900000e+001 7.900000e+001
         vertex -2.000000e+001 9.900000e+001 7.600000e+001
         vertex 1.000000e+002 9.900000e+001 7.900000e+001
      endloop
   endfacet
   facet normal 0.000000e+000 -1.000000e+000 0.000000e+000
      outer loop
         vertex 1.000000e+002 9.900000e+001 7.900000e+001
         vertex -2.000000e+001 9.900000e+001 7.600000e+001
         vertex 1.000000e+002 9.900000e+001 7.600000e+001
      endloop
   endfacet
   facet normal 0.000000e+000 0.000000e+000 -1.000000e+000
      outer loop
         vertex -2.000000e+001 9.700000e+001 7.900000e+001
         vertex -2.000000e+001 9.900000e+001 7.900000e+001
         vertex 1.000000e+002 9.700000e+001 7.900000e+001
      endloop
   endfacet
   facet normal 0.000000e+000 0.000000e+000 -1.000000e+000
      outer loop
         vertex 1.000000e+002 9.700000e+001 7.900000e+001
         vertex -2.000000e+001 9.900000e+001 7.900000e+001
         vertex 1.000000e+002 9.900000e+001 7.900000e+001
      endloop
   endfacet
   facet normal -1.156482e-015 0.000000e+000 1.000000e+000
      outer loop
         vertex 0.000000e+000 1.000000e+002 4.500000e+001
         vertex -6.000000e+000 1.000000e+002 4.500000e+001
         vertex 0.000000e+000 0.000000e+000 4.500000e+001
      endloop
   endfacet
   facet normal -1.156482e-015 0.000000e+000 1.000000e+000
      outer loop
         vertex 0.000000e+000 0.000000e+000 4.500000e+001
         vertex -6.000000e+000 1.000000e+002 4.500000e+001
         vertex -6.000000e+000 0.000000e+000 4.500000e+001
      endloop
   endfacet
   facet normal -1.000000e+000 0.000000e+000 -2.891206e-016
      outer loop
         vertex -6.000000e+000 1.000000e+002 4.500000e+001
         vertex -6.000000e+000 1.000000e+002 3.000000e+001
         vertex -6.000000e+000 0.000000e+000 4.500000e+001
      endloop
   endfacet
   facet normal -1.000000e+000 0.000000e+000 -2.891206e-016
      outer loop
         vertex -6.000000e+000 0.000000e+000 4.500000e+001
         vertex -6.000000e+000 1.000000e+002 3.000000e+001
         vertex -6.000000e+000 0.000000e+000 3.000000e+001
      endloop
   endfacet
   facet normal 3.469447e-015 0.000000e+000 -1.000000e+000
      outer loop
         vertex -6.000000e+000 1.000000e+002 3.000000e+001
         vertex 0.000000e+000 1.000000e+002 3.000000e+001
         vertex -6.000000e+000 0.000000e+000 3.000000e+001
      endloop
   endfacet
   facet normal 3.469447e-015 0.000000e+000 -1.000000e+000
      outer loop
         vertex -6.000000e+000 0.000000e+000 3.000000e+001
         vertex 0.000000e+000 1.000000e+002 3.000000e+001
         vertex 0.000000e+000 0.000000e+000 3.000000e+001
      endloop
   endfacet
   facet normal -5.782412e-016 0.000000e+000 -1.000000e+000
      outer loop
         vertex 8.000000e+001 1.000000e+002 3.000000e+001
         vertex 8.600000e+001 1.000000e+002 3.000000e+001
         vertex 8.000000e+001 0.000000e+000 3.000000e+001
      endloop
   endfacet
   facet normal -5.782412e-016 0.000000e+000 -1.000000e+000
      outer loop
         vertex 8.000000e+001 0.000000e+000 3.000000e+001
         vertex 8.600000e+001 1.000000e+002 3.000000e+001
         vertex 8.600000e+001 0.000000e+000 3.000000e+001
      endloop
   endfacet
   facet normal 1.000000e+000 0.000000e+000 0.000000e+000
      outer loop
         vertex 8.600000e+001 1.000000e+002 3.000000e+001
         vertex 8.600000e+001 1.000000e+002 4.500000e+001
         vertex 8.600000e+001 0.000000e+000 3.000000e+001
      endloop
   endfacet
   facet normal 1.000000e+000 0.000000e+000 0.000000e+000
      outer loop
         vertex 8.600000e+001 0.000000e+000 3.000000e+001
         vertex 8.600000e+001 1.000000e+002 4.500000e+001
         vertex 8.600000e+001 0.000000e+000 4.500000e+001
      endloop
   endfacet
   facet normal 0.000000e+000 0.000000e+000 1.000000e+000
      outer loop
         vertex 8.600000e+001 1.000000e+002 4.500000e+001
         vertex 8.000000e+001 1.000000e+002 4.500000e+001
         vertex 8.600000e+001 0.000000e+000 4.500000e+001
      endloop
   endfacet
   facet normal 0.000000e+000 0.000000e+000 1.000000e+000
      outer loop
         vertex 8.600000e+001 0.000000e+000 4.500000e+001
         vertex 8.000000e+001 1.000000e+002 4.500000e+001
         vertex 8.000000e+001 0.000000e+000 4.500000e+001
      endloop
   endfacet
endsolid