solid structure_ascenseur_Défaut_sldprt
   facet normal -1.577021e-016 1.000000e+000 0.000000e+000
      outer loop
         vertex -4.810000e+001 1.250000e+001 1.029913e+002
         vertex -5.110000e+001 1.250000e+001 1.029913e+002
         vertex -5.110000e+001 1.250000e+001 2.000000e+002
      endloop
   endfacet
   facet normal -1.577021e-016 1.000000e+000 0.000000e+000
      outer loop
         vertex -4.010000e+001 1.250000e+001 0.000000e+000
         vertex -4.810000e+001 1.250000e+001 0.000000e+000
         vertex -4.810000e+001 1.250000e+001 2.991250e+000
      endloop
   endfacet
   facet normal -1.577021e-016 1.000000e+000 0.000000e+000
      outer loop
         vertex -5.110000e+001 1.250000e+001 2.029912e+002
         vertex -5.110000e+001 1.250000e+001 3.000000e+002
         vertex -4.810000e+001 1.250000e+001 2.029912e+002
      endloop
   endfacet
   facet normal -1.577021e-016 1.000000e+000 0.000000e+000
      outer loop
         vertex -4.810000e+001 1.250000e+001 2.029912e+002
         vertex -5.110000e+001 1.250000e+001 3.000000e+002
         vertex -4.810000e+001 1.250000e+001 3.000000e+002
      endloop
   endfacet
   facet normal -1.577021e-016 1.000000e+000 0.000000e+000
      outer loop
         vertex -5.110000e+001 1.250000e+001 2.991250e+000
         vertex -5.110000e+001 1.250000e+001 1.000000e+002
         vertex -4.810000e+001 1.250000e+001 2.991250e+000
      endloop
   endfacet
   facet normal -1.577021e-016 1.000000e+000 0.000000e+000
      outer loop
         vertex -4.810000e+001 1.250000e+001 2.991250e+000
         vertex -5.110000e+001 1.250000e+001 1.000000e+002
         vertex -4.810000e+001 1.250000e+001 1.000000e+002
      endloop
   endfacet
   facet normal -1.577021e-016 1.000000e+000 0.000000e+000
      outer loop
         vertex -4.810000e+001 1.250000e+001 2.991250e+000
         vertex -4.810000e+001 1.250000e+001 1.000000e+002
         vertex -4.010000e+001 1.250000e+001 0.000000e+000
      endloop
   endfacet
   facet normal -1.577021e-016 1.000000e+000 0.000000e+000
      outer loop
         vertex -4.010000e+001 1.250000e+001 0.000000e+000
         vertex -4.810000e+001 1.250000e+001 1.000000e+002
         vertex -4.810000e+001 1.250000e+001 1.029913e+002
      endloop
   endfacet
   facet normal -1.577021e-016 1.000000e+000 0.000000e+000
      outer loop
         vertex -4.010000e+001 1.250000e+001 0.000000e+000
         vertex -4.810000e+001 1.250000e+001 1.029913e+002
         vertex -4.810000e+001 1.250000e+001 2.000000e+002
      endloop
   endfacet
   facet normal -1.577021e-016 1.000000e+000 0.000000e+000
      outer loop
         vertex -4.810000e+001 1.250000e+001 2.000000e+002
         vertex -4.810000e+001 1.250000e+001 1.029913e+002
         vertex -5.110000e+001 1.250000e+001 2.000000e+002
      endloop
   endfacet
   facet normal -1.577021e-016 1.000000e+000 0.000000e+000
      outer loop
         vertex -5.110000e+001 1.250000e+001 3.029912e+002
         vertex -5.110000e+001 1.250000e+001 4.000000e+002
         vertex -4.810000e+001 1.250000e+001 3.029912e+002
      endloop
   endfacet
   facet normal -1.577021e-016 1.000000e+000 0.000000e+000
      outer loop
         vertex -4.810000e+001 1.250000e+001 3.029912e+002
         vertex -5.110000e+001 1.250000e+001 4.000000e+002
         vertex -4.010000e+001 1.250000e+001 4.000000e+002
      endloop
   endfacet
   facet normal -1.577021e-016 1.000000e+000 0.000000e+000
      outer loop
         vertex -4.810000e+001 1.250000e+001 3.029912e+002
         vertex -4.010000e+001 1.250000e+001 4.000000e+002
         vertex -4.810000e+001 1.250000e+001 3.000000e+002
      endloop
   endfacet
   facet normal -1.577021e-016 1.000000e+000 0.000000e+000
      outer loop
         vertex -4.810000e+001 1.250000e+001 3.000000e+002
         vertex -4.010000e+001 1.250000e+001 4.000000e+002
         vertex -4.010000e+001 1.250000e+001 0.000000e+000
      endloop
   endfacet
   facet normal -1.577021e-016 1.000000e+000 0.000000e+000
      outer loop
         vertex -4.810000e+001 1.250000e+001 3.000000e+002
         vertex -4.010000e+001 1.250000e+001 0.000000e+000
         vertex -4.810000e+001 1.250000e+001 2.029912e+002
      endloop
   endfacet
   facet normal -1.577021e-016 1.000000e+000 0.000000e+000
      outer loop
         vertex -4.810000e+001 1.250000e+001 2.029912e+002
         vertex -4.010000e+001 1.250000e+001 0.000000e+000
         vertex -4.810000e+001 1.250000e+001 2.000000e+002
      endloop
   endfacet
   facet normal -1.000000e+000 0.000000e+000 0.000000e+000
      outer loop
         vertex -5.110000e+001 1.250000e+001 2.029912e+002
         vertex -5.110000e+001 -1.250000e+001 2.029912e+002
         vertex -5.110000e+001 1.250000e+001 3.000000e+002
      endloop
   endfacet
   facet normal -1.000000e+000 0.000000e+000 0.000000e+000
      outer loop
         vertex -5.110000e+001 1.250000e+001 3.000000e+002
         vertex -5.110000e+001 -1.250000e+001 2.029912e+002
         vertex -5.110000e+001 -1.250000e+001 3.000000e+002
      endloop
   endfacet
   facet normal -1.000000e+000 0.000000e+000 0.000000e+000
      outer loop
         vertex -5.110000e+001 -1.250000e+001 4.000000e+002
         vertex -5.110000e+001 1.250000e+001 4.000000e+002
         vertex -5.110000e+001 -1.250000e+001 3.029912e+002
      endloop
   endfacet
   facet normal -1.000000e+000 0.000000e+000 0.000000e+000
      outer loop
         vertex -5.110000e+001 -1.250000e+001 3.029912e+002
         vertex -5.110000e+001 1.250000e+001 4.000000e+002
         vertex -5.110000e+001 1.250000e+001 3.029912e+002
      endloop
   endfacet
   facet normal 1.577021e-016 -1.000000e+000 0.000000e+000
      outer loop
         vertex -4.810000e+001 -1.250000e+001 2.991250e+000
         vertex -4.810000e+001 -1.250000e+001 0.000000e+000
         vertex -4.010000e+001 -1.250000e+001 0.000000e+000
      endloop
   endfacet
   facet normal 1.577021e-016 -1.000000e+000 0.000000e+000
      outer loop
         vertex -5.110000e+001 -1.250000e+001 4.000000e+002
         vertex -5.110000e+001 -1.250000e+001 3.029912e+002
         vertex -4.010000e+001 -1.250000e+001 4.000000e+002
      endloop
   endfacet
   facet normal 1.577021e-016 -1.000000e+000 0.000000e+000
      outer loop
         vertex -4.010000e+001 -1.250000e+001 4.000000e+002
         vertex -5.110000e+001 -1.250000e+001 3.029912e+002
         vertex -4.810000e+001 -1.250000e+001 3.029912e+002
      endloop
   endfacet
   facet normal 1.577021e-016 -1.000000e+000 0.000000e+000
      outer loop
         vertex -4.010000e+001 -1.250000e+001 4.000000e+002
         vertex -4.810000e+001 -1.250000e+001 3.029912e+002
         vertex -4.810000e+001 -1.250000e+001 3.000000e+002
      endloop
   endfacet
   facet normal 1.577021e-016 -1.000000e+000 0.000000e+000
      outer loop
         vertex -5.110000e+001 -1.250000e+001 3.000000e+002
         vertex -5.110000e+001 -1.250000e+001 2.029912e+002
         vertex -4.810000e+001 -1.250000e+001 3.000000e+002
      endloop
   endfacet
   facet normal 1.577021e-016 -1.000000e+000 0.000000e+000
      outer loop
         vertex -4.810000e+001 -1.250000e+001 3.000000e+002
         vertex -5.110000e+001 -1.250000e+001 2.029912e+002
         vertex -4.810000e+001 -1.250000e+001 2.029912e+002
      endloop
   endfacet
   facet normal 1.577021e-016 -1.000000e+000 0.000000e+000
      outer loop
         vertex -4.810000e+001 -1.250000e+001 3.000000e+002
         vertex -4.810000e+001 -1.250000e+001 2.029912e+002
         vertex -4.010000e+001 -1.250000e+001 4.000000e+002
      endloop
   endfacet
   facet normal 1.577021e-016 -1.000000e+000 0.000000e+000
      outer loop
         vertex -4.010000e+001 -1.250000e+001 4.000000e+002
         vertex -4.810000e+001 -1.250000e+001 2.029912e+002
         vertex -4.810000e+001 -1.250000e+001 2.000000e+002
      endloop
   endfacet
   facet normal 1.577021e-016 -1.000000e+000 0.000000e+000
      outer loop
         vertex -4.010000e+001 -1.250000e+001 4.000000e+002
         vertex -4.810000e+001 -1.250000e+001 2.000000e+002
         vertex -4.010000e+001 -1.250000e+001 0.000000e+000
      endloop
   endfacet
   facet normal 1.577021e-016 -1.000000e+000 0.000000e+000
      outer loop
         vertex -4.810000e+001 -1.250000e+001 1.000000e+002
         vertex -5.110000e+001 -1.250000e+001 1.000000e+002
         vertex -5.110000e+001 -1.250000e+001 2.991250e+000
      endloop
   endfacet
   facet normal 1.577021e-016 -1.000000e+000 0.000000e+000
      outer loop
         vertex -5.110000e+001 -1.250000e+001 2.991250e+000
         vertex -4.810000e+001 -1.250000e+001 2.991250e+000
         vertex -4.810000e+001 -1.250000e+001 1.000000e+002
      endloop
   endfacet
   facet normal 1.577021e-016 -1.000000e+000 0.000000e+000
      outer loop
         vertex -4.810000e+001 -1.250000e+001 1.000000e+002
         vertex -4.810000e+001 -1.250000e+001 2.991250e+000
         vertex -4.010000e+001 -1.250000e+001 0.000000e+000
      endloop
   endfacet
   facet normal 1.577021e-016 -1.000000e+000 0.000000e+000
      outer loop
         vertex -4.810000e+001 -1.250000e+001 1.000000e+002
         vertex -4.010000e+001 -1.250000e+001 0.000000e+000
         vertex -4.810000e+001 -1.250000e+001 1.029913e+002
      endloop
   endfacet
   facet normal 1.577021e-016 -1.000000e+000 0.000000e+000
      outer loop
         vertex -4.810000e+001 -1.250000e+001 1.029913e+002
         vertex -4.010000e+001 -1.250000e+001 0.000000e+000
         vertex -4.810000e+001 -1.250000e+001 2.000000e+002
      endloop
   endfacet
   facet normal 1.577021e-016 -1.000000e+000 0.000000e+000
      outer loop
         vertex -4.810000e+001 -1.250000e+001 1.029913e+002
         vertex -4.810000e+001 -1.250000e+001 2.000000e+002
         vertex -5.110000e+001 -1.250000e+001 1.029913e+002
      endloop
   endfacet
   facet normal 1.577021e-016 -1.000000e+000 0.000000e+000
      outer loop
         vertex -5.110000e+001 -1.250000e+001 1.029913e+002
         vertex -4.810000e+001 -1.250000e+001 2.000000e+002
         vertex -5.110000e+001 -1.250000e+001 2.000000e+002
      endloop
   endfacet
   facet normal -1.000000e+000 0.000000e+000 0.000000e+000
      outer loop
         vertex -5.110000e+001 1.250000e+001 1.029913e+002
         vertex -5.110000e+001 -1.250000e+001 1.029913e+002
         vertex -5.110000e+001 1.250000e+001 2.000000e+002
      endloop
   endfacet
   facet normal -1.000000e+000 0.000000e+000 0.000000e+000
      outer loop
         vertex -5.110000e+001 1.250000e+001 2.000000e+002
         vertex -5.110000e+001 -1.250000e+001 1.029913e+002
         vertex -5.110000e+001 -1.250000e+001 2.000000e+002
      endloop
   endfacet
   facet normal -1.000000e+000 0.000000e+000 0.000000e+000
      outer loop
         vertex -5.110000e+001 1.250000e+001 2.991250e+000
         vertex -5.110000e+001 -1.250000e+001 2.991250e+000
         vertex -5.110000e+001 1.250000e+001 1.000000e+002
      endloop
   endfacet
   facet normal -1.000000e+000 0.000000e+000 0.000000e+000
      outer loop
         vertex -5.110000e+001 1.250000e+001 1.000000e+002
         vertex -5.110000e+001 -1.250000e+001 2.991250e+000
         vertex -5.110000e+001 -1.250000e+001 1.000000e+002
      endloop
   endfacet
   facet normal -1.000000e+000 0.000000e+000 0.000000e+000
      outer loop
         vertex -5.110000e+001 3.455855e+001 -1.000000e+001
         vertex -5.110000e+001 -4.544145e+001 -1.000000e+001
         vertex -5.110000e+001 3.455855e+001 0.000000e+000
      endloop
   endfacet
   facet normal -1.000000e+000 0.000000e+000 0.000000e+000
      outer loop
         vertex -5.110000e+001 3.455855e+001 0.000000e+000
         vertex -5.110000e+001 -4.544145e+001 -1.000000e+001
         vertex -5.110000e+001 -4.544145e+001 0.000000e+000
      endloop
   endfacet
   facet normal 1.000000e+000 0.000000e+000 0.000000e+000
      outer loop
         vertex 5.110000e+001 -1.250000e+001 3.000000e+002
         vertex 5.110000e+001 -1.250000e+001 2.029912e+002
         vertex 5.110000e+001 1.250000e+001 3.000000e+002
      endloop
   endfacet
   facet normal 1.000000e+000 0.000000e+000 0.000000e+000
      outer loop
         vertex 5.110000e+001 1.250000e+001 3.000000e+002
         vertex 5.110000e+001 -1.250000e+001 2.029912e+002
         vertex 5.110000e+001 1.250000e+001 2.029912e+002
      endloop
   endfacet
   facet normal 1.000000e+000 0.000000e+000 0.000000e+000
      outer loop
         vertex 5.110000e+001 -1.250000e+001 2.000000e+002
         vertex 5.110000e+001 -1.250000e+001 1.029913e+002
         vertex 5.110000e+001 1.250000e+001 2.000000e+002
      endloop
   endfacet
   facet normal 1.000000e+000 0.000000e+000 0.000000e+000
      outer loop
         vertex 5.110000e+001 1.250000e+001 2.000000e+002
         vertex 5.110000e+001 -1.250000e+001 1.029913e+002
         vertex 5.110000e+001 1.250000e+001 1.029913e+002
      endloop
   endfacet
   facet normal 1.000000e+000 0.000000e+000 0.000000e+000
      outer loop
         vertex 5.110000e+001 -1.250000e+001 1.000000e+002
         vertex 5.110000e+001 -1.250000e+001 2.991250e+000
         vertex 5.110000e+001 1.250000e+001 1.000000e+002
      endloop
   endfacet
   facet normal 1.000000e+000 0.000000e+000 0.000000e+000
      outer loop
         vertex 5.110000e+001 1.250000e+001 1.000000e+002
         vertex 5.110000e+001 -1.250000e+001 2.991250e+000
         vertex 5.110000e+001 1.250000e+001 2.991250e+000
      endloop
   endfacet
   facet normal 1.000000e+000 0.000000e+000 0.000000e+000
      outer loop
         vertex 5.110000e+001 -4.544145e+001 -1.000000e+001
         vertex 5.110000e+001 3.455855e+001 -1.000000e+001
         vertex 5.110000e+001 -4.544145e+001 0.000000e+000
      endloop
   endfacet
   facet normal 1.000000e+000 0.000000e+000 0.000000e+000
      outer loop
         vertex 5.110000e+001 -4.544145e+001 0.000000e+000
         vertex 5.110000e+001 3.455855e+001 -1.000000e+001
         vertex 5.110000e+001 3.455855e+001 0.000000e+000
      endloop
   endfacet
   facet normal 0.000000e+000 0.000000e+000 1.000000e+000
      outer loop
         vertex 4.810000e+001 -1.250000e+001 0.000000e+000
         vertex 5.110000e+001 -4.544145e+001 0.000000e+000
         vertex 5.110000e+001 3.455855e+001 0.000000e+000
      endloop
   endfacet
   facet normal 0.000000e+000 0.000000e+000 1.000000e+000
      outer loop
         vertex 5.110000e+001 -4.544145e+001 0.000000e+000
         vertex 4.810000e+001 -1.250000e+001 0.000000e+000
         vertex -5.110000e+001 -4.544145e+001 0.000000e+000
      endloop
   endfacet
   facet normal 0.000000e+000 0.000000e+000 1.000000e+000
      outer loop
         vertex -5.110000e+001 -4.544145e+001 0.000000e+000
         vertex 4.810000e+001 -1.250000e+001 0.000000e+000
         vertex 4.010000e+001 -1.250000e+001 0.000000e+000
      endloop
   endfacet
   facet normal 0.000000e+000 0.000000e+000 1.000000e+000
      outer loop
         vertex -5.110000e+001 -4.544145e+001 0.000000e+000
         vertex 4.010000e+001 -1.250000e+001 0.000000e+000
         vertex 4.010000e+001 -7.500000e+000 0.000000e+000
      endloop
   endfacet
   facet normal 0.000000e+000 0.000000e+000 1.000000e+000
      outer loop
         vertex -5.110000e+001 3.455855e+001 0.000000e+000
         vertex -4.010000e+001 1.250000e+001 0.000000e+000
         vertex 5.110000e+001 3.455855e+001 0.000000e+000
      endloop
   endfacet
   facet normal 0.000000e+000 0.000000e+000 1.000000e+000
      outer loop
         vertex 5.110000e+001 3.455855e+001 0.000000e+000
         vertex -4.010000e+001 1.250000e+001 0.000000e+000
         vertex -4.010000e+001 7.500000e+000 0.000000e+000
      endloop
   endfacet
   facet normal 0.000000e+000 0.000000e+000 1.000000e+000
      outer loop
         vertex 4.610000e+001 -7.500000e+000 0.000000e+000
         vertex 4.610000e+001 7.500000e+000 0.000000e+000
         vertex 4.010000e+001 -7.500000e+000 0.000000e+000
      endloop
   endfacet
   facet normal 0.000000e+000 0.000000e+000 1.000000e+000
      outer loop
         vertex 4.010000e+001 -7.500000e+000 0.000000e+000
         vertex 4.610000e+001 7.500000e+000 0.000000e+000
         vertex 4.010000e+001 7.500000e+000 0.000000e+000
      endloop
   endfacet
   facet normal 0.000000e+000 0.000000e+000 1.000000e+000
      outer loop
         vertex 4.010000e+001 -7.500000e+000 0.000000e+000
         vertex 4.010000e+001 7.500000e+000 0.000000e+000
         vertex -5.110000e+001 -4.544145e+001 0.000000e+000
      endloop
   endfacet
   facet normal 0.000000e+000 0.000000e+000 1.000000e+000
      outer loop
         vertex -5.110000e+001 -4.544145e+001 0.000000e+000
         vertex 4.010000e+001 7.500000e+000 0.000000e+000
         vertex 4.010000e+001 1.250000e+001 0.000000e+000
      endloop
   endfacet
   facet normal 0.000000e+000 0.000000e+000 1.000000e+000
      outer loop
         vertex -5.110000e+001 -4.544145e+001 0.000000e+000
         vertex 4.010000e+001 1.250000e+001 0.000000e+000
         vertex 5.110000e+001 3.455855e+001 0.000000e+000
      endloop
   endfacet
   facet normal 0.000000e+000 0.000000e+000 1.000000e+000
      outer loop
         vertex 5.110000e+001 3.455855e+001 0.000000e+000
         vertex 4.010000e+001 1.250000e+001 0.000000e+000
         vertex 4.810000e+001 1.250000e+001 0.000000e+000
      endloop
   endfacet
   facet normal 0.000000e+000 0.000000e+000 1.000000e+000
      outer loop
         vertex 5.110000e+001 3.455855e+001 0.000000e+000
         vertex 4.810000e+001 1.250000e+001 0.000000e+000
         vertex 4.810000e+001 -1.250000e+001 0.000000e+000
      endloop
   endfacet
   facet normal 0.000000e+000 0.000000e+000 1.000000e+000
      outer loop
         vertex -4.610000e+001 7.500000e+000 0.000000e+000
         vertex -4.610000e+001 -7.500000e+000 0.000000e+000
         vertex -4.010000e+001 7.500000e+000 0.000000e+000
      endloop
   endfacet
   facet normal 0.000000e+000 0.000000e+000 1.000000e+000
      outer loop
         vertex -4.010000e+001 7.500000e+000 0.000000e+000
         vertex -4.610000e+001 -7.500000e+000 0.000000e+000
         vertex -4.010000e+001 -7.500000e+000 0.000000e+000
      endloop
   endfacet
   facet normal 0.000000e+000 0.000000e+000 1.000000e+000
      outer loop
         vertex -4.010000e+001 7.500000e+000 0.000000e+000
         vertex -4.010000e+001 -7.500000e+000 0.000000e+000
         vertex 5.110000e+001 3.455855e+001 0.000000e+000
      endloop
   endfacet
   facet normal 0.000000e+000 0.000000e+000 1.000000e+000
      outer loop
         vertex 5.110000e+001 3.455855e+001 0.000000e+000
         vertex -4.010000e+001 -7.500000e+000 0.000000e+000
         vertex -4.010000e+001 -1.250000e+001 0.000000e+000
      endloop
   endfacet
   facet normal 0.000000e+000 0.000000e+000 1.000000e+000
      outer loop
         vertex 5.110000e+001 3.455855e+001 0.000000e+000
         vertex -4.010000e+001 -1.250000e+001 0.000000e+000
         vertex -5.110000e+001 -4.544145e+001 0.000000e+000
      endloop
   endfacet
   facet normal 0.000000e+000 0.000000e+000 1.000000e+000
      outer loop
         vertex -5.110000e+001 -4.544145e+001 0.000000e+000
         vertex -4.010000e+001 -1.250000e+001 0.000000e+000
         vertex -4.810000e+001 -1.250000e+001 0.000000e+000
      endloop
   endfacet
   facet normal 0.000000e+000 0.000000e+000 1.000000e+000
      outer loop
         vertex -5.110000e+001 -4.544145e+001 0.000000e+000
         vertex -4.810000e+001 -1.250000e+001 0.000000e+000
         vertex -5.110000e+001 3.455855e+001 0.000000e+000
      endloop
   endfacet
   facet normal 0.000000e+000 0.000000e+000 1.000000e+000
      outer loop
         vertex -5.110000e+001 3.455855e+001 0.000000e+000
         vertex -4.810000e+001 -1.250000e+001 0.000000e+000
         vertex -4.810000e+001 1.250000e+001 0.000000e+000
      endloop
   endfacet
   facet normal 0.000000e+000 0.000000e+000 1.000000e+000
      outer loop
         vertex -5.110000e+001 3.455855e+001 0.000000e+000
         vertex -4.810000e+001 1.250000e+001 0.000000e+000
         vertex -4.010000e+001 1.250000e+001 0.000000e+000
      endloop
   endfacet
   facet normal 1.000000e+000 0.000000e+000 0.000000e+000
      outer loop
         vertex -4.010000e+001 1.250000e+001 4.000000e+002
         vertex -4.010000e+001 7.500000e+000 4.000000e+002
         vertex -4.010000e+001 1.250000e+001 0.000000e+000
      endloop
   endfacet
   facet normal 1.000000e+000 0.000000e+000 0.000000e+000
      outer loop
         vertex -4.010000e+001 1.250000e+001 0.000000e+000
         vertex -4.010000e+001 7.500000e+000 4.000000e+002
         vertex -4.010000e+001 7.500000e+000 0.000000e+000
      endloop
   endfacet
   facet normal 1.000000e+000 0.000000e+000 0.000000e+000
      outer loop
         vertex -4.010000e+001 -7.500000e+000 4.000000e+002
         vertex -4.010000e+001 -1.250000e+001 4.000000e+002
         vertex -4.010000e+001 -7.500000e+000 0.000000e+000
      endloop
   endfacet
   facet normal 1.000000e+000 0.000000e+000 0.000000e+000
      outer loop
         vertex -4.010000e+001 -7.500000e+000 0.000000e+000
         vertex -4.010000e+001 -1.250000e+001 4.000000e+002
         vertex -4.010000e+001 -1.250000e+001 0.000000e+000
      endloop
   endfacet
   facet normal 0.000000e+000 1.000000e+000 0.000000e+000
      outer loop
         vertex -4.610000e+001 -7.500000e+000 4.000000e+002
         vertex -4.010000e+001 -7.500000e+000 4.000000e+002
         vertex -4.610000e+001 -7.500000e+000 0.000000e+000
      endloop
   endfacet
   facet normal 0.000000e+000 1.000000e+000 0.000000e+000
      outer loop
         vertex -4.610000e+001 -7.500000e+000 0.000000e+000
         vertex -4.010000e+001 -7.500000e+000 4.000000e+002
         vertex -4.010000e+001 -7.500000e+000 0.000000e+000
      endloop
   endfacet
   facet normal 1.000000e+000 -9.251858e-016 0.000000e+000
      outer loop
         vertex -4.610000e+001 7.500000e+000 4.000000e+002
         vertex -4.610000e+001 -7.500000e+000 4.000000e+002
         vertex -4.610000e+001 7.500000e+000 0.000000e+000
      endloop
   endfacet
   facet normal 1.000000e+000 -9.251858e-016 0.000000e+000
      outer loop
         vertex -4.610000e+001 7.500000e+000 0.000000e+000
         vertex -4.610000e+001 -7.500000e+000 4.000000e+002
         vertex -4.610000e+001 -7.500000e+000 0.000000e+000
      endloop
   endfacet
   facet normal 1.445603e-016 -1.000000e+000 0.000000e+000
      outer loop
         vertex -4.010000e+001 7.500000e+000 4.000000e+002
         vertex -4.610000e+001 7.500000e+000 4.000000e+002
         vertex -4.010000e+001 7.500000e+000 0.000000e+000
      endloop
   endfacet
   facet normal 1.445603e-016 -1.000000e+000 0.000000e+000
      outer loop
         vertex -4.010000e+001 7.500000e+000 0.000000e+000
         vertex -4.610000e+001 7.500000e+000 4.000000e+002
         vertex -4.610000e+001 7.500000e+000 0.000000e+000
      endloop
   endfacet
   facet normal 0.000000e+000 0.000000e+000 1.000000e+000
      outer loop
         vertex -4.010000e+001 7.500000e+000 4.000000e+002
         vertex -4.010000e+001 1.250000e+001 4.000000e+002
         vertex -4.610000e+001 7.500000e+000 4.000000e+002
      endloop
   endfacet
   facet normal 0.000000e+000 0.000000e+000 1.000000e+000
      outer loop
         vertex -4.610000e+001 7.500000e+000 4.000000e+002
         vertex -4.010000e+001 1.250000e+001 4.000000e+002
         vertex -5.110000e+001 1.250000e+001 4.000000e+002
      endloop
   endfacet
   facet normal 0.000000e+000 0.000000e+000 1.000000e+000
      outer loop
         vertex -4.610000e+001 7.500000e+000 4.000000e+002
         vertex -5.110000e+001 1.250000e+001 4.000000e+002
         vertex -4.610000e+001 -7.500000e+000 4.000000e+002
      endloop
   endfacet
   facet normal 0.000000e+000 0.000000e+000 1.000000e+000
      outer loop
         vertex -4.610000e+001 -7.500000e+000 4.000000e+002
         vertex -5.110000e+001 1.250000e+001 4.000000e+002
         vertex -5.110000e+001 -1.250000e+001 4.000000e+002
      endloop
   endfacet
   facet normal 0.000000e+000 0.000000e+000 1.000000e+000
      outer loop
         vertex -4.610000e+001 -7.500000e+000 4.000000e+002
         vertex -5.110000e+001 -1.250000e+001 4.000000e+002
         vertex -4.010000e+001 -7.500000e+000 4.000000e+002
      endloop
   endfacet
   facet normal 0.000000e+000 0.000000e+000 1.000000e+000
      outer loop
         vertex -4.010000e+001 -7.500000e+000 4.000000e+002
         vertex -5.110000e+001 -1.250000e+001 4.000000e+002
         vertex -4.010000e+001 -1.250000e+001 4.000000e+002
      endloop
   endfacet
   facet normal 1.000000e+000 0.000000e+000 0.000000e+000
      outer loop
         vertex 5.110000e+001 1.250000e+001 3.029912e+002
         vertex 5.110000e+001 1.250000e+001 4.000000e+002
         vertex 5.110000e+001 -1.250000e+001 3.029912e+002
      endloop
   endfacet
   facet normal 1.000000e+000 0.000000e+000 0.000000e+000
      outer loop
         vertex 5.110000e+001 -1.250000e+001 3.029912e+002
         vertex 5.110000e+001 1.250000e+001 4.000000e+002
         vertex 5.110000e+001 -1.250000e+001 4.000000e+002
      endloop
   endfacet
   facet normal 0.000000e+000 -1.000000e+000 0.000000e+000
      outer loop
         vertex -5.110000e+001 -4.544145e+001 -1.000000e+001
         vertex 5.110000e+001 -4.544145e+001 -1.000000e+001
         vertex -5.110000e+001 -4.544145e+001 0.000000e+000
      endloop
   endfacet
   facet normal 0.000000e+000 -1.000000e+000 0.000000e+000
      outer loop
         vertex -5.110000e+001 -4.544145e+001 0.000000e+000
         vertex 5.110000e+001 -4.544145e+001 -1.000000e+001
         vertex 5.110000e+001 -4.544145e+001 0.000000e+000
      endloop
   endfacet
   facet normal 0.000000e+000 1.000000e+000 0.000000e+000
      outer loop
         vertex 5.110000e+001 3.455855e+001 -1.000000e+001
         vertex -5.110000e+001 3.455855e+001 -1.000000e+001
         vertex 5.110000e+001 3.455855e+001 0.000000e+000
      endloop
   endfacet
   facet normal 0.000000e+000 1.000000e+000 0.000000e+000
      outer loop
         vertex 5.110000e+001 3.455855e+001 0.000000e+000
         vertex -5.110000e+001 3.455855e+001 -1.000000e+001
         vertex -5.110000e+001 3.455855e+001 0.000000e+000
      endloop
   endfacet
   facet normal 0.000000e+000 0.000000e+000 -1.000000e+000
      outer loop
         vertex -5.110000e+001 -4.544145e+001 -1.000000e+001
         vertex -5.110000e+001 3.455855e+001 -1.000000e+001
         vertex 5.110000e+001 -4.544145e+001 -1.000000e+001
      endloop
   endfacet
   facet normal 0.000000e+000 0.000000e+000 -1.000000e+000
      outer loop
         vertex 5.110000e+001 -4.544145e+001 -1.000000e+001
         vertex -5.110000e+001 3.455855e+001 -1.000000e+001
         vertex 5.110000e+001 3.455855e+001 -1.000000e+001
      endloop
   endfacet
   facet normal 1.577021e-016 1.000000e+000 0.000000e+000
      outer loop
         vertex 4.810000e+001 1.250000e+001 2.991250e+000
         vertex 4.810000e+001 1.250000e+001 0.000000e+000
         vertex 4.010000e+001 1.250000e+001 0.000000e+000
      endloop
   endfacet
   facet normal 1.577021e-016 1.000000e+000 0.000000e+000
      outer loop
         vertex 4.010000e+001 1.250000e+001 4.000000e+002
         vertex 5.110000e+001 1.250000e+001 4.000000e+002
         vertex 5.110000e+001 1.250000e+001 3.029912e+002
      endloop
   endfacet
   facet normal 1.577021e-016 1.000000e+000 0.000000e+000
      outer loop
         vertex 5.110000e+001 1.250000e+001 3.000000e+002
         vertex 5.110000e+001 1.250000e+001 2.029912e+002
         vertex 4.810000e+001 1.250000e+001 3.000000e+002
      endloop
   endfacet
   facet normal 1.577021e-016 1.000000e+000 0.000000e+000
      outer loop
         vertex 4.810000e+001 1.250000e+001 3.000000e+002
         vertex 5.110000e+001 1.250000e+001 2.029912e+002
         vertex 4.810000e+001 1.250000e+001 2.029912e+002
      endloop
   endfacet
   facet normal 1.577021e-016 1.000000e+000 0.000000e+000
      outer loop
         vertex 5.110000e+001 1.250000e+001 3.029912e+002
         vertex 4.810000e+001 1.250000e+001 3.029912e+002
         vertex 4.010000e+001 1.250000e+001 4.000000e+002
      endloop
   endfacet
   facet normal 1.577021e-016 1.000000e+000 0.000000e+000
      outer loop
         vertex 4.010000e+001 1.250000e+001 4.000000e+002
         vertex 4.810000e+001 1.250000e+001 3.029912e+002
         vertex 4.810000e+001 1.250000e+001 3.000000e+002
      endloop
   endfacet
   facet normal 1.577021e-016 1.000000e+000 0.000000e+000
      outer loop
         vertex 4.010000e+001 1.250000e+001 4.000000e+002
         vertex 4.810000e+001 1.250000e+001 3.000000e+002
         vertex 4.010000e+001 1.250000e+001 0.000000e+000
      endloop
   endfacet
   facet normal 1.577021e-016 1.000000e+000 0.000000e+000
      outer loop
         vertex 4.010000e+001 1.250000e+001 0.000000e+000
         vertex 4.810000e+001 1.250000e+001 3.000000e+002
         vertex 4.810000e+001 1.250000e+001 2.029912e+002
      endloop
   endfacet
   facet normal 1.577021e-016 1.000000e+000 0.000000e+000
      outer loop
         vertex 4.010000e+001 1.250000e+001 0.000000e+000
         vertex 4.810000e+001 1.250000e+001 2.029912e+002
         vertex 4.810000e+001 1.250000e+001 2.000000e+002
      endloop
   endfacet
   facet normal 1.577021e-016 1.000000e+000 0.000000e+000
      outer loop
         vertex 4.810000e+001 1.250000e+001 1.000000e+002
         vertex 5.110000e+001 1.250000e+001 1.000000e+002
         vertex 5.110000e+001 1.250000e+001 2.991250e+000
      endloop
   endfacet
   facet normal 1.577021e-016 1.000000e+000 0.000000e+000
      outer loop
         vertex 5.110000e+001 1.250000e+001 2.991250e+000
         vertex 4.810000e+001 1.250000e+001 2.991250e+000
         vertex 4.810000e+001 1.250000e+001 1.000000e+002
      endloop
   endfacet
   facet normal 1.577021e-016 1.000000e+000 0.000000e+000
      outer loop
         vertex 4.810000e+001 1.250000e+001 1.000000e+002
         vertex 4.810000e+001 1.250000e+001 2.991250e+000
         vertex 4.010000e+001 1.250000e+001 0.000000e+000
      endloop
   endfacet
   facet normal 1.577021e-016 1.000000e+000 0.000000e+000
      outer loop
         vertex 4.810000e+001 1.250000e+001 1.000000e+002
         vertex 4.010000e+001 1.250000e+001 0.000000e+000
         vertex 4.810000e+001 1.250000e+001 1.029913e+002
      endloop
   endfacet
   facet normal 1.577021e-016 1.000000e+000 0.000000e+000
      outer loop
         vertex 4.810000e+001 1.250000e+001 1.029913e+002
         vertex 4.010000e+001 1.250000e+001 0.000000e+000
         vertex 4.810000e+001 1.250000e+001 2.000000e+002
      endloop
   endfacet
   facet normal 1.577021e-016 1.000000e+000 0.000000e+000
      outer loop
         vertex 4.810000e+001 1.250000e+001 1.029913e+002
         vertex 4.810000e+001 1.250000e+001 2.000000e+002
         vertex 5.110000e+001 1.250000e+001 1.029913e+002
      endloop
   endfacet
   facet normal 1.577021e-016 1.000000e+000 0.000000e+000
      outer loop
         vertex 5.110000e+001 1.250000e+001 1.029913e+002
         vertex 4.810000e+001 1.250000e+001 2.000000e+002
         vertex 5.110000e+001 1.250000e+001 2.000000e+002
      endloop
   endfacet
   facet normal -1.000000e+000 0.000000e+000 0.000000e+000
      outer loop
         vertex 4.010000e+001 7.500000e+000 4.000000e+002
         vertex 4.010000e+001 1.250000e+001 4.000000e+002
         vertex 4.010000e+001 7.500000e+000 0.000000e+000
      endloop
   endfacet
   facet normal -1.000000e+000 0.000000e+000 0.000000e+000
      outer loop
         vertex 4.010000e+001 7.500000e+000 0.000000e+000
         vertex 4.010000e+001 1.250000e+001 4.000000e+002
         vertex 4.010000e+001 1.250000e+001 0.000000e+000
      endloop
   endfacet
   facet normal -1.445603e-016 -1.000000e+000 0.000000e+000
      outer loop
         vertex 4.610000e+001 7.500000e+000 4.000000e+002
         vertex 4.010000e+001 7.500000e+000 4.000000e+002
         vertex 4.610000e+001 7.500000e+000 0.000000e+000
      endloop
   endfacet
   facet normal -1.445603e-016 -1.000000e+000 0.000000e+000
      outer loop
         vertex 4.610000e+001 7.500000e+000 0.000000e+000
         vertex 4.010000e+001 7.500000e+000 4.000000e+002
         vertex 4.010000e+001 7.500000e+000 0.000000e+000
      endloop
   endfacet
   facet normal -1.000000e+000 -9.251858e-016 0.000000e+000
      outer loop
         vertex 4.610000e+001 -7.500000e+000 4.000000e+002
         vertex 4.610000e+001 7.500000e+000 4.000000e+002
         vertex 4.610000e+001 -7.500000e+000 0.000000e+000
      endloop
   endfacet
   facet normal -1.000000e+000 -9.251858e-016 0.000000e+000
      outer loop
         vertex 4.610000e+001 -7.500000e+000 0.000000e+000
         vertex 4.610000e+001 7.500000e+000 4.000000e+002
         vertex 4.610000e+001 7.500000e+000 0.000000e+000
      endloop
   endfacet
   facet normal 0.000000e+000 1.000000e+000 0.000000e+000
      outer loop
         vertex 4.010000e+001 -7.500000e+000 4.000000e+002
         vertex 4.610000e+001 -7.500000e+000 4.000000e+002
         vertex 4.010000e+001 -7.500000e+000 0.000000e+000
      endloop
   endfacet
   facet normal 0.000000e+000 1.000000e+000 0.000000e+000
      outer loop
         vertex 4.010000e+001 -7.500000e+000 0.000000e+000
         vertex 4.610000e+001 -7.500000e+000 4.000000e+002
         vertex 4.610000e+001 -7.500000e+000 0.000000e+000
      endloop
   endfacet
   facet normal -1.000000e+000 0.000000e+000 0.000000e+000
      outer loop
         vertex 4.010000e+001 -1.250000e+001 4.000000e+002
         vertex 4.010000e+001 -7.500000e+000 4.000000e+002
         vertex 4.010000e+001 -1.250000e+001 0.000000e+000
      endloop
   endfacet
   facet normal -1.000000e+000 0.000000e+000 0.000000e+000
      outer loop
         vertex 4.010000e+001 -1.250000e+001 0.000000e+000
         vertex 4.010000e+001 -7.500000e+000 4.000000e+002
         vertex 4.010000e+001 -7.500000e+000 0.000000e+000
      endloop
   endfacet
   facet normal -1.577021e-016 -1.000000e+000 0.000000e+000
      outer loop
         vertex 4.810000e+001 -1.250000e+001 1.029913e+002
         vertex 5.110000e+001 -1.250000e+001 1.029913e+002
         vertex 5.110000e+001 -1.250000e+001 2.000000e+002
      endloop
   endfacet
   facet normal -1.577021e-016 -1.000000e+000 0.000000e+000
      outer loop
         vertex 4.010000e+001 -1.250000e+001 4.000000e+002
         vertex 4.010000e+001 -1.250000e+001 0.000000e+000
         vertex 4.810000e+001 -1.250000e+001 2.991250e+000
      endloop
   endfacet
   facet normal -1.577021e-016 -1.000000e+000 0.000000e+000
      outer loop
         vertex 4.810000e+001 -1.250000e+001 2.991250e+000
         vertex 4.010000e+001 -1.250000e+001 0.000000e+000
         vertex 4.810000e+001 -1.250000e+001 0.000000e+000
      endloop
   endfacet
   facet normal -1.577021e-016 -1.000000e+000 0.000000e+000
      outer loop
         vertex 4.810000e+001 -1.250000e+001 2.000000e+002
         vertex 4.810000e+001 -1.250000e+001 2.029912e+002
         vertex 4.010000e+001 -1.250000e+001 4.000000e+002
      endloop
   endfacet
   facet normal -1.577021e-016 -1.000000e+000 0.000000e+000
      outer loop
         vertex 5.110000e+001 -1.250000e+001 2.000000e+002
         vertex 4.810000e+001 -1.250000e+001 2.000000e+002
         vertex 4.810000e+001 -1.250000e+001 1.029913e+002
      endloop
   endfacet
   facet normal -1.577021e-016 -1.000000e+000 0.000000e+000
      outer loop
         vertex 4.810000e+001 -1.250000e+001 1.029913e+002
         vertex 4.810000e+001 -1.250000e+001 2.000000e+002
         vertex 4.010000e+001 -1.250000e+001 4.000000e+002
      endloop
   endfacet
   facet normal -1.577021e-016 -1.000000e+000 0.000000e+000
      outer loop
         vertex 4.810000e+001 -1.250000e+001 1.029913e+002
         vertex 4.010000e+001 -1.250000e+001 4.000000e+002
         vertex 4.810000e+001 -1.250000e+001 1.000000e+002
      endloop
   endfacet
   facet normal -1.577021e-016 -1.000000e+000 0.000000e+000
      outer loop
         vertex 4.810000e+001 -1.250000e+001 1.000000e+002
         vertex 4.010000e+001 -1.250000e+001 4.000000e+002
         vertex 4.810000e+001 -1.250000e+001 2.991250e+000
      endloop
   endfacet
   facet normal -1.577021e-016 -1.000000e+000 0.000000e+000
      outer loop
         vertex 4.810000e+001 -1.250000e+001 1.000000e+002
         vertex 4.810000e+001 -1.250000e+001 2.991250e+000
         vertex 5.110000e+001 -1.250000e+001 1.000000e+002
      endloop
   endfacet
   facet normal -1.577021e-016 -1.000000e+000 0.000000e+000
      outer loop
         vertex 5.110000e+001 -1.250000e+001 1.000000e+002
         vertex 4.810000e+001 -1.250000e+001 2.991250e+000
         vertex 5.110000e+001 -1.250000e+001 2.991250e+000
      endloop
   endfacet
   facet normal -1.577021e-016 -1.000000e+000 0.000000e+000
      outer loop
         vertex 5.110000e+001 -1.250000e+001 3.029912e+002
         vertex 5.110000e+001 -1.250000e+001 4.000000e+002
         vertex 4.810000e+001 -1.250000e+001 3.029912e+002
      endloop
   endfacet
   facet normal -1.577021e-016 -1.000000e+000 0.000000e+000
      outer loop
         vertex 4.810000e+001 -1.250000e+001 3.029912e+002
         vertex 5.110000e+001 -1.250000e+001 4.000000e+002
         vertex 4.010000e+001 -1.250000e+001 4.000000e+002
      endloop
   endfacet
   facet normal -1.577021e-016 -1.000000e+000 0.000000e+000
      outer loop
         vertex 4.810000e+001 -1.250000e+001 3.029912e+002
         vertex 4.010000e+001 -1.250000e+001 4.000000e+002
         vertex 4.810000e+001 -1.250000e+001 3.000000e+002
      endloop
   endfacet
   facet normal -1.577021e-016 -1.000000e+000 0.000000e+000
      outer loop
         vertex 4.810000e+001 -1.250000e+001 3.000000e+002
         vertex 4.010000e+001 -1.250000e+001 4.000000e+002
         vertex 4.810000e+001 -1.250000e+001 2.029912e+002
      endloop
   endfacet
   facet normal -1.577021e-016 -1.000000e+000 0.000000e+000
      outer loop
         vertex 4.810000e+001 -1.250000e+001 3.000000e+002
         vertex 4.810000e+001 -1.250000e+001 2.029912e+002
         vertex 5.110000e+001 -1.250000e+001 3.000000e+002
      endloop
   endfacet
   facet normal -1.577021e-016 -1.000000e+000 0.000000e+000
      outer loop
         vertex 5.110000e+001 -1.250000e+001 3.000000e+002
         vertex 4.810000e+001 -1.250000e+001 2.029912e+002
         vertex 5.110000e+001 -1.250000e+001 2.029912e+002
      endloop
   endfacet
   facet normal 0.000000e+000 0.000000e+000 1.000000e+000
      outer loop
         vertex 4.010000e+001 -7.500000e+000 4.000000e+002
         vertex 4.010000e+001 -1.250000e+001 4.000000e+002
         vertex 4.610000e+001 -7.500000e+000 4.000000e+002
      endloop
   endfacet
   facet normal 0.000000e+000 0.000000e+000 1.000000e+000
      outer loop
         vertex 4.610000e+001 -7.500000e+000 4.000000e+002
         vertex 4.010000e+001 -1.250000e+001 4.000000e+002
         vertex 5.110000e+001 -1.250000e+001 4.000000e+002
      endloop
   endfacet
   facet normal 0.000000e+000 0.000000e+000 1.000000e+000
      outer loop
         vertex 4.610000e+001 -7.500000e+000 4.000000e+002
         vertex 5.110000e+001 -1.250000e+001 4.000000e+002
         vertex 4.610000e+001 7.500000e+000 4.000000e+002
      endloop
   endfacet
   facet normal 0.000000e+000 0.000000e+000 1.000000e+000
      outer loop
         vertex 4.610000e+001 7.500000e+000 4.000000e+002
         vertex 5.110000e+001 -1.250000e+001 4.000000e+002
         vertex 5.110000e+001 1.250000e+001 4.000000e+002
      endloop
   endfacet
   facet normal 0.000000e+000 0.000000e+000 1.000000e+000
      outer loop
         vertex 4.610000e+001 7.500000e+000 4.000000e+002
         vertex 5.110000e+001 1.250000e+001 4.000000e+002
         vertex 4.010000e+001 7.500000e+000 4.000000e+002
      endloop
   endfacet
   facet normal 0.000000e+000 0.000000e+000 1.000000e+000
      outer loop
         vertex 4.010000e+001 7.500000e+000 4.000000e+002
         vertex 5.110000e+001 1.250000e+001 4.000000e+002
         vertex 4.010000e+001 1.250000e+001 4.000000e+002
      endloop
   endfacet
   facet normal 0.000000e+000 0.000000e+000 -1.000000e+000
      outer loop
         vertex 4.810000e+001 -1.250000e+001 2.991250e+000
         vertex 4.810000e+001 1.250000e+001 2.991250e+000
         vertex 5.110000e+001 -1.250000e+001 2.991250e+000
      endloop
   endfacet
   facet normal 0.000000e+000 0.000000e+000 -1.000000e+000
      outer loop
         vertex 5.110000e+001 -1.250000e+001 2.991250e+000
         vertex 4.810000e+001 1.250000e+001 2.991250e+000
         vertex 5.110000e+001 1.250000e+001 2.991250e+000
      endloop
   endfacet
   facet normal 1.000000e+000 0.000000e+000 0.000000e+000
      outer loop
         vertex 4.810000e+001 1.250000e+001 2.991250e+000
         vertex 4.810000e+001 -1.250000e+001 2.991250e+000
         vertex 4.810000e+001 1.250000e+001 0.000000e+000
      endloop
   endfacet
   facet normal 1.000000e+000 0.000000e+000 0.000000e+000
      outer loop
         vertex 4.810000e+001 1.250000e+001 0.000000e+000
         vertex 4.810000e+001 -1.250000e+001 2.991250e+000
         vertex 4.810000e+001 -1.250000e+001 0.000000e+000
      endloop
   endfacet
   facet normal 0.000000e+000 0.000000e+000 1.000000e+000
      outer loop
         vertex 4.810000e+001 1.250000e+001 1.000000e+002
         vertex 4.810000e+001 -1.250000e+001 1.000000e+002
         vertex 5.110000e+001 1.250000e+001 1.000000e+002
      endloop
   endfacet
   facet normal 0.000000e+000 0.000000e+000 1.000000e+000
      outer loop
         vertex 5.110000e+001 1.250000e+001 1.000000e+002
         vertex 4.810000e+001 -1.250000e+001 1.000000e+002
         vertex 5.110000e+001 -1.250000e+001 1.000000e+002
      endloop
   endfacet
   facet normal 0.000000e+000 0.000000e+000 -1.000000e+000
      outer loop
         vertex 4.810000e+001 -1.250000e+001 1.029913e+002
         vertex 4.810000e+001 1.250000e+001 1.029913e+002
         vertex 5.110000e+001 -1.250000e+001 1.029913e+002
      endloop
   endfacet
   facet normal 0.000000e+000 0.000000e+000 -1.000000e+000
      outer loop
         vertex 5.110000e+001 -1.250000e+001 1.029913e+002
         vertex 4.810000e+001 1.250000e+001 1.029913e+002
         vertex 5.110000e+001 1.250000e+001 1.029913e+002
      endloop
   endfacet
   facet normal 1.000000e+000 0.000000e+000 0.000000e+000
      outer loop
         vertex 4.810000e+001 1.250000e+001 1.029913e+002
         vertex 4.810000e+001 -1.250000e+001 1.029913e+002
         vertex 4.810000e+001 1.250000e+001 1.000000e+002
      endloop
   endfacet
   facet normal 1.000000e+000 0.000000e+000 0.000000e+000
      outer loop
         vertex 4.810000e+001 1.250000e+001 1.000000e+002
         vertex 4.810000e+001 -1.250000e+001 1.029913e+002
         vertex 4.810000e+001 -1.250000e+001 1.000000e+002
      endloop
   endfacet
   facet normal 0.000000e+000 0.000000e+000 1.000000e+000
      outer loop
         vertex 4.810000e+001 1.250000e+001 2.000000e+002
         vertex 4.810000e+001 -1.250000e+001 2.000000e+002
         vertex 5.110000e+001 1.250000e+001 2.000000e+002
      endloop
   endfacet
   facet normal 0.000000e+000 0.000000e+000 1.000000e+000
      outer loop
         vertex 5.110000e+001 1.250000e+001 2.000000e+002
         vertex 4.810000e+001 -1.250000e+001 2.000000e+002
         vertex 5.110000e+001 -1.250000e+001 2.000000e+002
      endloop
   endfacet
   facet normal 0.000000e+000 0.000000e+000 -1.000000e+000
      outer loop
         vertex 4.810000e+001 -1.250000e+001 2.029912e+002
         vertex 4.810000e+001 1.250000e+001 2.029912e+002
         vertex 5.110000e+001 -1.250000e+001 2.029912e+002
      endloop
   endfacet
   facet normal 0.000000e+000 0.000000e+000 -1.000000e+000
      outer loop
         vertex 5.110000e+001 -1.250000e+001 2.029912e+002
         vertex 4.810000e+001 1.250000e+001 2.029912e+002
         vertex 5.110000e+001 1.250000e+001 2.029912e+002
      endloop
   endfacet
   facet normal 1.000000e+000 0.000000e+000 0.000000e+000
      outer loop
         vertex 4.810000e+001 1.250000e+001 2.029912e+002
         vertex 4.810000e+001 -1.250000e+001 2.029912e+002
         vertex 4.810000e+001 1.250000e+001 2.000000e+002
      endloop
   endfacet
   facet normal 1.000000e+000 0.000000e+000 0.000000e+000
      outer loop
         vertex 4.810000e+001 1.250000e+001 2.000000e+002
         vertex 4.810000e+001 -1.250000e+001 2.029912e+002
         vertex 4.810000e+001 -1.250000e+001 2.000000e+002
      endloop
   endfacet
   facet normal 0.000000e+000 0.000000e+000 1.000000e+000
      outer loop
         vertex 4.810000e+001 1.250000e+001 3.000000e+002
         vertex 4.810000e+001 -1.250000e+001 3.000000e+002
         vertex 5.110000e+001 1.250000e+001 3.000000e+002
      endloop
   endfacet
   facet normal 0.000000e+000 0.000000e+000 1.000000e+000
      outer loop
         vertex 5.110000e+001 1.250000e+001 3.000000e+002
         vertex 4.810000e+001 -1.250000e+001 3.000000e+002
         vertex 5.110000e+001 -1.250000e+001 3.000000e+002
      endloop
   endfacet
   facet normal 0.000000e+000 0.000000e+000 -1.000000e+000
      outer loop
         vertex 4.810000e+001 -1.250000e+001 3.029912e+002
         vertex 4.810000e+001 1.250000e+001 3.029912e+002
         vertex 5.110000e+001 -1.250000e+001 3.029912e+002
      endloop
   endfacet
   facet normal 0.000000e+000 0.000000e+000 -1.000000e+000
      outer loop
         vertex 5.110000e+001 -1.250000e+001 3.029912e+002
         vertex 4.810000e+001 1.250000e+001 3.029912e+002
         vertex 5.110000e+001 1.250000e+001 3.029912e+002
      endloop
   endfacet
   facet normal 1.000000e+000 0.000000e+000 0.000000e+000
      outer loop
         vertex 4.810000e+001 1.250000e+001 3.029912e+002
         vertex 4.810000e+001 -1.250000e+001 3.029912e+002
         vertex 4.810000e+001 1.250000e+001 3.000000e+002
      endloop
   endfacet
   facet normal 1.000000e+000 0.000000e+000 0.000000e+000
      outer loop
         vertex 4.810000e+001 1.250000e+001 3.000000e+002
         vertex 4.810000e+001 -1.250000e+001 3.029912e+002
         vertex 4.810000e+001 -1.250000e+001 3.000000e+002
      endloop
   endfacet
   facet normal 0.000000e+000 0.000000e+000 -1.000000e+000
      outer loop
         vertex -4.810000e+001 1.250000e+001 2.991250e+000
         vertex -4.810000e+001 -1.250000e+001 2.991250e+000
         vertex -5.110000e+001 1.250000e+001 2.991250e+000
      endloop
   endfacet
   facet normal 0.000000e+000 0.000000e+000 -1.000000e+000
      outer loop
         vertex -5.110000e+001 1.250000e+001 2.991250e+000
         vertex -4.810000e+001 -1.250000e+001 2.991250e+000
         vertex -5.110000e+001 -1.250000e+001 2.991250e+000
      endloop
   endfacet
   facet normal -1.000000e+000 0.000000e+000 0.000000e+000
      outer loop
         vertex -4.810000e+001 -1.250000e+001 2.991250e+000
         vertex -4.810000e+001 1.250000e+001 2.991250e+000
         vertex -4.810000e+001 -1.250000e+001 0.000000e+000
      endloop
   endfacet
   facet normal -1.000000e+000 0.000000e+000 0.000000e+000
      outer loop
         vertex -4.810000e+001 -1.250000e+001 0.000000e+000
         vertex -4.810000e+001 1.250000e+001 2.991250e+000
         vertex -4.810000e+001 1.250000e+001 0.000000e+000
      endloop
   endfacet
   facet normal 0.000000e+000 0.000000e+000 1.000000e+000
      outer loop
         vertex -4.810000e+001 -1.250000e+001 1.000000e+002
         vertex -4.810000e+001 1.250000e+001 1.000000e+002
         vertex -5.110000e+001 -1.250000e+001 1.000000e+002
      endloop
   endfacet
   facet normal 0.000000e+000 0.000000e+000 1.000000e+000
      outer loop
         vertex -5.110000e+001 -1.250000e+001 1.000000e+002
         vertex -4.810000e+001 1.250000e+001 1.000000e+002
         vertex -5.110000e+001 1.250000e+001 1.000000e+002
      endloop
   endfacet
   facet normal 0.000000e+000 0.000000e+000 -1.000000e+000
      outer loop
         vertex -4.810000e+001 1.250000e+001 1.029913e+002
         vertex -4.810000e+001 -1.250000e+001 1.029913e+002
         vertex -5.110000e+001 1.250000e+001 1.029913e+002
      endloop
   endfacet
   facet normal 0.000000e+000 0.000000e+000 -1.000000e+000
      outer loop
         vertex -5.110000e+001 1.250000e+001 1.029913e+002
         vertex -4.810000e+001 -1.250000e+001 1.029913e+002
         vertex -5.110000e+001 -1.250000e+001 1.029913e+002
      endloop
   endfacet
   facet normal -1.000000e+000 0.000000e+000 0.000000e+000
      outer loop
         vertex -4.810000e+001 -1.250000e+001 1.029913e+002
         vertex -4.810000e+001 1.250000e+001 1.029913e+002
         vertex -4.810000e+001 -1.250000e+001 1.000000e+002
      endloop
   endfacet
   facet normal -1.000000e+000 0.000000e+000 0.000000e+000
      outer loop
         vertex -4.810000e+001 -1.250000e+001 1.000000e+002
         vertex -4.810000e+001 1.250000e+001 1.029913e+002
         vertex -4.810000e+001 1.250000e+001 1.000000e+002
      endloop
   endfacet
   facet normal 0.000000e+000 0.000000e+000 1.000000e+000
      outer loop
         vertex -4.810000e+001 -1.250000e+001 2.000000e+002
         vertex -4.810000e+001 1.250000e+001 2.000000e+002
         vertex -5.110000e+001 -1.250000e+001 2.000000e+002
      endloop
   endfacet
   facet normal 0.000000e+000 0.000000e+000 1.000000e+000
      outer loop
         vertex -5.110000e+001 -1.250000e+001 2.000000e+002
         vertex -4.810000e+001 1.250000e+001 2.000000e+002
         vertex -5.110000e+001 1.250000e+001 2.000000e+002
      endloop
   endfacet
   facet normal 0.000000e+000 0.000000e+000 -1.000000e+000
      outer loop
         vertex -4.810000e+001 1.250000e+001 2.029912e+002
         vertex -4.810000e+001 -1.250000e+001 2.029912e+002
         vertex -5.110000e+001 1.250000e+001 2.029912e+002
      endloop
   endfacet
   facet normal 0.000000e+000 0.000000e+000 -1.000000e+000
      outer loop
         vertex -5.110000e+001 1.250000e+001 2.029912e+002
         vertex -4.810000e+001 -1.250000e+001 2.029912e+002
         vertex -5.110000e+001 -1.250000e+001 2.029912e+002
      endloop
   endfacet
   facet normal -1.000000e+000 0.000000e+000 0.000000e+000
      outer loop
         vertex -4.810000e+001 -1.250000e+001 2.029912e+002
         vertex -4.810000e+001 1.250000e+001 2.029912e+002
         vertex -4.810000e+001 -1.250000e+001 2.000000e+002
      endloop
   endfacet
   facet normal -1.000000e+000 0.000000e+000 0.000000e+000
      outer loop
         vertex -4.810000e+001 -1.250000e+001 2.000000e+002
         vertex -4.810000e+001 1.250000e+001 2.029912e+002
         vertex -4.810000e+001 1.250000e+001 2.000000e+002
      endloop
   endfacet
   facet normal 0.000000e+000 0.000000e+000 1.000000e+000
      outer loop
         vertex -4.810000e+001 -1.250000e+001 3.000000e+002
         vertex -4.810000e+001 1.250000e+001 3.000000e+002
         vertex -5.110000e+001 -1.250000e+001 3.000000e+002
      endloop
   endfacet
   facet normal 0.000000e+000 0.000000e+000 1.000000e+000
      outer loop
         vertex -5.110000e+001 -1.250000e+001 3.000000e+002
         vertex -4.810000e+001 1.250000e+001 3.000000e+002
         vertex -5.110000e+001 1.250000e+001 3.000000e+002
      endloop
   endfacet
   facet normal 0.000000e+000 0.000000e+000 -1.000000e+000
      outer loop
         vertex -4.810000e+001 1.250000e+001 3.029912e+002
         vertex -4.810000e+001 -1.250000e+001 3.029912e+002
         vertex -5.110000e+001 1.250000e+001 3.029912e+002
      endloop
   endfacet
   facet normal 0.000000e+000 0.000000e+000 -1.000000e+000
      outer loop
         vertex -5.110000e+001 1.250000e+001 3.029912e+002
         vertex -4.810000e+001 -1.250000e+001 3.029912e+002
         vertex -5.110000e+001 -1.250000e+001 3.029912e+002
      endloop
   endfacet
   facet normal -1.000000e+000 0.000000e+000 0.000000e+000
      outer loop
         vertex -4.810000e+001 -1.250000e+001 3.029912e+002
         vertex -4.810000e+001 1.250000e+001 3.029912e+002
         vertex -4.810000e+001 -1.250000e+001 3.000000e+002
      endloop
   endfacet
   facet normal -1.000000e+000 0.000000e+000 0.000000e+000
      outer loop
         vertex -4.810000e+001 -1.250000e+001 3.000000e+002
         vertex -4.810000e+001 1.250000e+001 3.029912e+002
         vertex -4.810000e+001 1.250000e+001 3.000000e+002
      endloop
   endfacet
endsolid